<svg width="1050" height="826" viewBox="0 0 1050 826" fill="none" xmlns="http://www.w3.org/2000/svg">
<path fill-rule="evenodd" clip-rule="evenodd" d="M540.5 96.4999C541.117 96.6106 541.617 96.9439 542 97.4999C542.167 99.1666 542.333 100.833 542.5 102.5C542.444 104.64 541.777 106.306 540.5 107.5C535.43 107.739 530.43 108.405 525.5 109.5C525.5 106.833 525.5 104.167 525.5 101.5C523.901 101.232 522.568 101.566 521.5 102.5C520.5 102.5 519.5 102.5 518.5 102.5C518.5 105.833 518.5 109.167 518.5 112.5C518.5 116.833 518.5 121.167 518.5 125.5C518.5 128.5 518.5 131.5 518.5 134.5C519.791 134.737 520.791 134.404 521.5 133.5C524.041 132.377 524.041 131.044 521.5 129.5C520.796 126.296 520.13 123.129 519.5 120C520.191 118.933 520.691 117.766 521 116.5C525.982 114.67 531.148 113.67 536.5 113.5C538.167 113.5 539.833 113.5 541.5 113.5C541.5 124.5 541.5 135.5 541.5 146.5C537.833 146.5 534.167 146.5 530.5 146.5C521.167 146.5 511.833 146.5 502.5 146.5C502.333 130.163 502.5 113.83 503 97.4999C507.656 91.0363 513.989 88.703 522 90.4999C526.167 90.6666 530.333 90.8332 534.5 90.9999C536.37 93.0395 538.37 94.8728 540.5 96.4999Z" fill="#7CBB75"/>
<path opacity="0.463" fill-rule="evenodd" clip-rule="evenodd" d="M593.5 96.5C582.149 95.3312 570.816 93.9978 559.5 92.5C559.737 93.791 559.404 94.791 558.5 95.5C558.5 94.1667 558.5 92.8333 558.5 91.5C570.464 91.971 582.131 93.6377 593.5 96.5Z" fill="#3F6348"/>
<path fill-rule="evenodd" clip-rule="evenodd" d="M593.5 96.5C594.167 96.5 594.833 96.5 595.5 96.5C595.348 100.262 594.681 103.928 593.5 107.5C588.896 108.016 584.229 108.016 579.5 107.5C577.44 106.189 575.274 106.189 573 107.5C572.199 110.367 572.366 113.034 573.5 115.5C577.167 115.5 580.833 115.5 584.5 115.5C583.705 119.476 583.038 123.476 582.5 127.5C578.5 127.5 574.5 127.5 570.5 127.5C570.5 129.167 570.5 130.833 570.5 132.5C570.5 133.167 570.5 133.833 570.5 134.5C569.088 136.23 569.422 137.73 571.5 139C577.112 140.131 582.779 140.631 588.5 140.5C587.665 144.34 587.665 148.006 588.5 151.5C587.688 152.993 586.355 153.66 584.5 153.5C573.464 151.883 562.464 150.05 551.5 148C550.825 143.183 551.158 138.35 552.5 133.5C555.344 121.093 557.344 108.427 558.5 95.5C559.404 94.791 559.737 93.791 559.5 92.5C570.816 93.9978 582.149 95.3312 593.5 96.5Z" fill="#7BBA75"/>
<path fill-rule="evenodd" clip-rule="evenodd" d="M475.5 93.5C481.667 94.6642 485 98.3308 485.5 104.5C487.486 117.096 488.819 129.763 489.5 142.5C488.392 144.781 487.058 146.948 485.5 149C476.246 151.042 466.913 152.542 457.5 153.5C455.167 153.5 452.833 153.5 450.5 153.5C447.081 135.172 444.081 116.838 441.5 98.5C452.824 96.8358 464.157 95.1691 475.5 93.5ZM462.5 108.5C464.167 108.5 465.833 108.5 467.5 108.5C467.721 111.067 468.388 113.401 469.5 115.5C470.019 122.109 471.019 128.609 472.5 135C470.255 137.235 467.755 138.068 465 137.5C464.031 131.656 462.864 125.989 461.5 120.5C461.5 120.167 461.5 119.833 461.5 119.5C461.493 116.962 461.159 114.462 460.5 112C460.862 110.566 461.528 109.399 462.5 108.5Z" fill="#7BBB75"/>
<path fill-rule="evenodd" clip-rule="evenodd" d="M475.5 93.5C464.157 95.1691 452.824 96.8358 441.5 98.5C452.632 94.8651 463.966 93.1985 475.5 93.5Z" fill="#4C7551"/>
<path fill-rule="evenodd" clip-rule="evenodd" d="M618.5 102.5C625.785 105.815 633.452 108.149 641.5 109.5C644.785 109.928 647.785 110.928 650.5 112.5C651.287 114.104 652.62 114.771 654.5 114.5C654.425 117.206 654.092 119.873 653.5 122.5C649.5 122.5 645.5 122.5 641.5 122.5C640.833 122.5 640.167 122.5 639.5 122.5C635.98 132.552 632.146 142.552 628 152.5C626.957 155.757 626.457 159.09 626.5 162.5C626.209 163.649 625.376 164.316 624 164.5C622.93 164.472 622.097 164.139 621.5 163.5C618.855 161.69 615.855 160.69 612.5 160.5C612.167 160.5 611.833 160.5 611.5 160.5C610.933 158.302 610.933 155.969 611.5 153.5C613.943 148.5 615.61 143.166 616.5 137.5C618.277 134.495 619.277 131.162 619.5 127.5C621.818 125.375 622.652 122.709 622 119.5C618.017 117.897 613.85 117.23 609.5 117.5C608.167 116.167 608.167 114.833 609.5 113.5C611.225 110.375 612.725 107.042 614 103.5C615.356 102.62 616.856 102.286 618.5 102.5Z" fill="#7CBB75"/>
<path opacity="0.463" fill-rule="evenodd" clip-rule="evenodd" d="M618.5 102.5C626.556 103.855 634.223 106.188 641.5 109.5C633.452 108.149 625.785 105.815 618.5 102.5Z" fill="#406046"/>
<path opacity="0.2" fill-rule="evenodd" clip-rule="evenodd" d="M521.5 102.5C522.5 102.5 523.5 102.5 524.5 102.5C524.5 103.5 524.5 104.5 524.5 105.5C523.221 104.032 521.554 103.365 519.5 103.5C519.81 106.713 519.477 109.713 518.5 112.5C518.5 109.167 518.5 105.833 518.5 102.5C519.5 102.5 520.5 102.5 521.5 102.5Z" fill="#192425"/>
<path fill-rule="evenodd" clip-rule="evenodd" d="M430.5 127.5C431.025 131.533 432.358 135.2 434.5 138.5C436.965 144.06 438.965 149.893 440.5 156C440.355 156.772 440.022 157.439 439.5 158C427.111 163.074 414.445 167.241 401.5 170.5C398.734 168.49 397.067 165.657 396.5 162C396.164 160.97 395.497 160.47 394.5 160.5C393.262 158.786 392.595 156.786 392.5 154.5C392.699 150.079 391.365 146.413 388.5 143.5C386.579 134.734 384.245 126.067 381.5 117.5C386.096 114.07 391.096 112.736 396.5 113.5C398.017 119.555 399.851 125.555 402 131.5C402.383 132.056 402.883 132.389 403.5 132.5C403.345 135.716 404.345 138.383 406.5 140.5C406.5 140.833 406.5 141.167 406.5 141.5C407.095 145.615 408.095 149.615 409.5 153.5C412.01 153.946 414.01 153.28 415.5 151.5C415.973 150.094 416.973 149.427 418.5 149.5C419.124 149.083 419.457 148.416 419.5 147.5C418.359 144.245 417.526 140.911 417 137.5C416.647 134.848 415.48 132.848 413.5 131.5C412.262 129.786 411.595 127.786 411.5 125.5C410.901 121.352 409.568 117.685 407.5 114.5C407.5 112.5 407.5 110.5 407.5 108.5C409.553 108.598 411.22 107.931 412.5 106.5C417.013 106.478 421.18 108.145 425 111.5C427.536 116.607 429.369 121.94 430.5 127.5Z" fill="#79B773"/>
<path fill-rule="evenodd" clip-rule="evenodd" d="M521.5 102.5C522.568 101.566 523.901 101.232 525.5 101.5C525.5 104.167 525.5 106.833 525.5 109.5C530.43 108.405 535.43 107.739 540.5 107.5C535.527 109.76 530.194 110.76 524.5 110.5C524.5 108.833 524.5 107.167 524.5 105.5C524.5 104.5 524.5 103.5 524.5 102.5C523.5 102.5 522.5 102.5 521.5 102.5Z" fill="#4B724F"/>
<path fill-rule="evenodd" clip-rule="evenodd" d="M595.5 96.5C596.526 100.431 596.193 104.431 594.5 108.5C589.293 109.695 584.293 109.362 579.5 107.5C584.229 108.016 588.896 108.016 593.5 107.5C594.681 103.928 595.348 100.262 595.5 96.5Z" fill="#395940"/>
<path fill-rule="evenodd" clip-rule="evenodd" d="M558.5 95.5C557.344 108.427 555.344 121.093 552.5 133.5C553.864 120.602 555.864 107.935 558.5 95.5Z" fill="#385841"/>
<path fill-rule="evenodd" clip-rule="evenodd" d="M412.5 106.5C411.22 107.931 409.553 108.598 407.5 108.5C407.5 110.5 407.5 112.5 407.5 114.5C403.979 108.98 405.646 106.313 412.5 106.5Z" fill="#4A7250"/>
<path opacity="0.929" fill-rule="evenodd" clip-rule="evenodd" d="M618.5 102.5C616.856 102.286 615.356 102.62 614 103.5C612.725 107.042 611.225 110.375 609.5 113.5C610.095 109.385 611.095 105.385 612.5 101.5C614.735 101.205 616.735 101.539 618.5 102.5Z" fill="#395A41"/>
<path opacity="0.963" fill-rule="evenodd" clip-rule="evenodd" d="M540.5 96.5C538.37 94.8729 536.37 93.0396 534.5 91C530.333 90.8333 526.167 90.6667 522 90.5C513.989 88.7031 507.656 91.0364 503 97.5C502.5 113.83 502.333 130.163 502.5 146.5C511.833 146.5 521.167 146.5 530.5 146.5C521.014 147.494 511.348 147.827 501.5 147.5C501.333 130.497 501.5 113.497 502 96.5C507.019 90.0096 513.686 87.6762 522 89.5C526.5 89.6667 531 89.8333 535.5 90C537.79 91.7772 539.457 93.9438 540.5 96.5Z" fill="#49704E"/>
<path fill-rule="evenodd" clip-rule="evenodd" d="M485.5 104.5C488.617 116.547 490.451 128.88 491 141.5C490.617 142.056 490.117 142.389 489.5 142.5C488.819 129.763 487.486 117.096 485.5 104.5Z" fill="#426549"/>
<path opacity="0.024" fill-rule="evenodd" clip-rule="evenodd" d="M469.5 115.5C468.388 113.401 467.721 111.067 467.5 108.5C465.833 108.5 464.167 108.5 462.5 108.5C462.611 107.883 462.944 107.383 463.5 107C465.473 106.505 467.473 106.338 469.5 106.5C469.5 109.5 469.5 112.5 469.5 115.5Z" fill="#1B322E"/>
<path opacity="0.612" fill-rule="evenodd" clip-rule="evenodd" d="M579.5 107.5C577.833 107.5 576.167 107.5 574.5 107.5C574.599 110.237 574.265 112.904 573.5 115.5C572.366 113.034 572.199 110.367 573 107.5C575.274 106.189 577.44 106.189 579.5 107.5Z" fill="#466B4B"/>
<path fill-rule="evenodd" clip-rule="evenodd" d="M396.5 113.5C399.401 119.527 401.734 125.861 403.5 132.5C402.883 132.389 402.383 132.056 402 131.5C399.851 125.555 398.017 119.555 396.5 113.5Z" fill="#3F6146"/>
<path fill-rule="evenodd" clip-rule="evenodd" d="M462.5 108.5C461.528 109.399 460.862 110.566 460.5 112C461.159 114.462 461.493 116.962 461.5 119.5C460.778 119.082 460.278 118.416 460 117.5C459.502 114.518 459.335 111.518 459.5 108.5C460.5 108.5 461.5 108.5 462.5 108.5Z" fill="#375641"/>
<path fill-rule="evenodd" clip-rule="evenodd" d="M609.5 117.5C613.85 117.23 618.017 117.897 622 119.5C622.652 122.709 621.818 125.375 619.5 127.5C619.851 125.131 620.018 122.797 620 120.5C616.443 119.335 612.943 118.335 609.5 117.5Z" fill="#3D5E45"/>
<path fill-rule="evenodd" clip-rule="evenodd" d="M441.5 98.5C444.081 116.838 447.081 135.172 450.5 153.5C452.833 153.5 455.167 153.5 457.5 153.5C454.77 154.817 451.937 154.817 449 153.5C446.009 137.889 443.343 122.222 441 106.5C440.199 103.633 440.366 100.966 441.5 98.5Z" fill="#4A704D"/>
<path opacity="0.467" fill-rule="evenodd" clip-rule="evenodd" d="M407.5 114.5C409.568 117.685 410.901 121.352 411.5 125.5C409.399 122.203 408.065 118.537 407.5 114.5Z" fill="#395841"/>
<path opacity="0.475" fill-rule="evenodd" clip-rule="evenodd" d="M584.5 115.5C585.139 116.097 585.472 116.93 585.5 118C585.178 121.509 584.178 124.675 582.5 127.5C583.038 123.476 583.705 119.476 584.5 115.5Z" fill="#416047"/>
<path opacity="0.99" fill-rule="evenodd" clip-rule="evenodd" d="M650.5 112.5C652.582 112.472 654.416 113.139 656 114.5C656.715 118.308 655.881 121.642 653.5 124.5C649.365 123.891 645.365 123.224 641.5 122.5C645.5 122.5 649.5 122.5 653.5 122.5C654.092 119.873 654.425 117.206 654.5 114.5C652.62 114.771 651.287 114.104 650.5 112.5Z" fill="#4B774F"/>
<path fill-rule="evenodd" clip-rule="evenodd" d="M673.5 122.5C676.747 125.079 680.414 126.745 684.5 127.5C685.497 127.47 686.164 127.97 686.5 129C685.86 131.12 684.86 132.954 683.5 134.5C679.712 140.412 676.712 146.745 674.5 153.5C670.712 159.412 667.712 165.745 665.5 172.5C664.943 175.885 663.11 178.218 660 179.5C655.45 178.14 651.283 176.14 647.5 173.5C655.447 156.608 663.114 139.608 670.5 122.5C671.5 122.5 672.5 122.5 673.5 122.5Z" fill="#7BBA75"/>
<path fill-rule="evenodd" clip-rule="evenodd" d="M673.5 122.5C677.582 123.376 681.249 125.043 684.5 127.5C680.414 126.745 676.747 125.079 673.5 122.5Z" fill="#43684A"/>
<path fill-rule="evenodd" clip-rule="evenodd" d="M582.5 127.5C579.054 128.687 575.387 129.354 571.5 129.5C571.737 130.791 571.404 131.791 570.5 132.5C570.5 130.833 570.5 129.167 570.5 127.5C574.5 127.5 578.5 127.5 582.5 127.5Z" fill="#2E4538"/>
<path fill-rule="evenodd" clip-rule="evenodd" d="M619.5 127.5C619.277 131.162 618.277 134.495 616.5 137.5C616.723 133.838 617.723 130.505 619.5 127.5Z" fill="#314B3A"/>
<path fill-rule="evenodd" clip-rule="evenodd" d="M345.5 184.5C339.359 172.887 333.192 161.22 327 149.5C326.421 148.072 326.588 146.738 327.5 145.5C336.693 139.177 346.526 133.844 357 129.5C368.964 131.94 373.797 139.107 371.5 151C374.586 151.984 377.419 153.484 380 155.5C383.841 161.178 387.174 167.178 390 173.5C390.684 174.784 390.517 175.951 389.5 177C377.731 183.634 365.898 190.134 354 196.5C352.395 195.899 351.062 194.899 350 193.5C348.239 190.589 346.739 187.589 345.5 184.5ZM351.5 147.5C356.891 150.4 356.724 153.4 351 156.5C347.58 153.273 347.747 150.273 351.5 147.5ZM359.5 172.5C359.366 170.708 359.699 169.042 360.5 167.5C363.987 165.788 365.987 166.955 366.5 171C364.659 175.972 362.326 176.472 359.5 172.5Z" fill="#78B673"/>
<path fill-rule="evenodd" clip-rule="evenodd" d="M536.5 113.5C538.265 112.539 540.265 112.205 542.5 112.5C542.828 124.012 542.495 135.346 541.5 146.5C541.5 135.5 541.5 124.5 541.5 113.5C539.833 113.5 538.167 113.5 536.5 113.5Z" fill="#375842"/>
<path fill-rule="evenodd" clip-rule="evenodd" d="M413.5 131.5C415.48 132.848 416.647 134.848 417 137.5C417.526 140.911 418.359 144.245 419.5 147.5C419.457 148.416 419.124 149.083 418.5 149.5C416.833 143.499 415.166 137.499 413.5 131.5Z" fill="#41664B"/>
<path opacity="0.965" fill-rule="evenodd" clip-rule="evenodd" d="M430.5 127.5C432.601 130.797 433.935 134.463 434.5 138.5C432.358 135.2 431.025 131.533 430.5 127.5Z" fill="#385942"/>
<path opacity="0.145" fill-rule="evenodd" clip-rule="evenodd" d="M518.5 125.5C518.902 128.477 519.902 131.143 521.5 133.5C520.791 134.404 519.791 134.737 518.5 134.5C518.5 131.5 518.5 128.5 518.5 125.5Z" fill="#192522"/>
<path opacity="0.906" fill-rule="evenodd" clip-rule="evenodd" d="M381.5 117.5C384.245 126.067 386.579 134.734 388.5 143.5C384.566 135.087 382.233 126.42 381.5 117.5Z" fill="#426346"/>
<path opacity="0.965" fill-rule="evenodd" clip-rule="evenodd" d="M403.5 132.5C404.871 134.936 405.871 137.603 406.5 140.5C404.345 138.383 403.345 135.716 403.5 132.5Z" fill="#36513D"/>
<path fill-rule="evenodd" clip-rule="evenodd" d="M703.5 161.5C700.841 163.162 701.175 164.496 704.5 165.5C705.833 165.833 707.167 166.167 708.5 166.5C710.333 166.415 711.666 165.748 712.5 164.5C714.951 158.595 718.617 153.595 723.5 149.5C726.877 150.877 729.211 153.21 730.5 156.5C730.717 161.23 730.383 165.897 729.5 170.5C727.671 174.991 724.338 177.658 719.5 178.5C719.218 181.057 719.051 183.723 719 186.5C715.706 193.594 711.54 200.094 706.5 206C705.5 206.667 704.5 206.667 703.5 206C698.935 203.891 694.935 201.058 691.5 197.5C694.789 191.086 698.456 184.919 702.5 179C700.431 177.126 698.098 176.126 695.5 176C691.669 181.864 687.503 187.364 683 192.5C677.635 190.415 673.135 187.248 669.5 183C672.696 176.104 676.53 169.604 681 163.5C684.098 162.366 686.931 160.866 689.5 159C688.507 156.547 688.34 154.047 689 151.5C692.122 145.561 695.956 140.228 700.5 135.5C703.957 137.063 707.29 138.896 710.5 141C712.124 142.117 713.124 143.617 713.5 145.5C711.158 151.532 707.824 156.866 703.5 161.5Z" fill="#74AF6F"/>
<path opacity="0.965" fill-rule="evenodd" clip-rule="evenodd" d="M469.5 115.5C470.976 119.96 472.142 124.626 473 129.5C473.818 132.227 473.652 134.894 472.5 137.5C469.34 139.027 466.007 139.693 462.5 139.5C462.347 133.155 462.014 126.822 461.5 120.5C462.864 125.989 464.031 131.656 465 137.5C467.755 138.068 470.255 137.235 472.5 135C471.019 128.609 470.019 122.109 469.5 115.5Z" fill="#324D3D"/>
<path fill-rule="evenodd" clip-rule="evenodd" d="M570.5 134.5C570.414 135.496 570.748 136.329 571.5 137C577.386 137.754 583.053 138.92 588.5 140.5C582.779 140.631 577.112 140.131 571.5 139C569.422 137.73 569.088 136.23 570.5 134.5Z" fill="#4A6F4D"/>
<path fill-rule="evenodd" clip-rule="evenodd" d="M616.5 137.5C615.61 143.166 613.943 148.5 611.5 153.5C612.39 147.834 614.057 142.5 616.5 137.5Z" fill="#3F6146"/>
<path opacity="0.722" fill-rule="evenodd" clip-rule="evenodd" d="M639.5 122.5C635.939 136.182 631.605 149.515 626.5 162.5C626.457 159.09 626.957 155.757 628 152.5C632.146 142.552 635.98 132.552 639.5 122.5Z" fill="#3D5F45"/>
<path opacity="0.392" fill-rule="evenodd" clip-rule="evenodd" d="M683.5 134.5C681.288 141.255 678.288 147.588 674.5 153.5C676.712 146.745 679.712 140.412 683.5 134.5Z" fill="#38573E"/>
<path fill-rule="evenodd" clip-rule="evenodd" d="M388.5 143.5C391.365 146.413 392.699 150.079 392.5 154.5C390.796 151.061 389.462 147.395 388.5 143.5Z" fill="#43674B"/>
<path fill-rule="evenodd" clip-rule="evenodd" d="M406.5 141.5C408.601 144.797 409.935 148.463 410.5 152.5C412.216 152.371 413.883 152.038 415.5 151.5C414.01 153.28 412.01 153.946 409.5 153.5C408.095 149.615 407.095 145.615 406.5 141.5Z" fill="#3C5D45"/>
<path fill-rule="evenodd" clip-rule="evenodd" d="M327.5 145.5C326.588 146.738 326.421 148.072 327 149.5C333.192 161.22 339.359 172.887 345.5 184.5C337.768 172.717 330.768 160.383 324.5 147.5C325.005 146.081 326.005 145.415 327.5 145.5Z" fill="#3A5A42"/>
<path opacity="0.02" fill-rule="evenodd" clip-rule="evenodd" d="M351.5 145.5C352.978 145.238 354.311 145.571 355.5 146.5C358.976 152.385 357.31 156.052 350.5 157.5C348.208 156.374 346.875 154.54 346.5 152C347.956 149.706 349.623 147.539 351.5 145.5ZM351.5 147.5C347.747 150.273 347.58 153.273 351 156.5C356.724 153.4 356.891 150.4 351.5 147.5Z" fill="#294237"/>
<path opacity="0.49" fill-rule="evenodd" clip-rule="evenodd" d="M588.5 140.5C589.498 144.006 589.498 147.672 588.5 151.5C587.665 148.006 587.665 144.34 588.5 140.5Z" fill="#395941"/>
<path fill-rule="evenodd" clip-rule="evenodd" d="M673.5 122.5C672.5 122.5 671.5 122.5 670.5 122.5C663.114 139.608 655.447 156.608 647.5 173.5C646.402 172.399 646.235 171.066 647 169.5C654.5 153.833 662 138.167 669.5 122.5C670.958 121.218 672.292 121.218 673.5 122.5Z" fill="#4B724F"/>
<path opacity="0.078" fill-rule="evenodd" clip-rule="evenodd" d="M611.5 153.5C610.933 155.969 610.933 158.302 611.5 160.5C610.414 160.38 609.747 159.713 609.5 158.5C609.801 156.578 610.467 154.912 611.5 153.5Z" fill="#37543D"/>
<path opacity="0.906" fill-rule="evenodd" clip-rule="evenodd" d="M612.5 160.5C615.855 160.69 618.855 161.69 621.5 163.5C618.084 163.472 615.084 162.472 612.5 160.5Z" fill="#3C5B42"/>
<path fill-rule="evenodd" clip-rule="evenodd" d="M730.5 156.5C731.529 158.948 732.196 161.614 732.5 164.5C732.533 167.102 731.533 169.102 729.5 170.5C730.383 165.897 730.717 161.23 730.5 156.5Z" fill="#416548"/>
<path opacity="0.282" fill-rule="evenodd" clip-rule="evenodd" d="M359.5 172.5C362.326 176.472 364.659 175.972 366.5 171C365.987 166.955 363.987 165.788 360.5 167.5C361.406 165.086 363.072 164.253 365.5 165C370.062 170.579 368.895 174.746 362 177.5C359.843 176.615 359.01 174.948 359.5 172.5Z" fill="#1F302D"/>
<path fill-rule="evenodd" clip-rule="evenodd" d="M703.5 161.5C705.603 165.047 708.603 166.047 712.5 164.5C711.666 165.748 710.333 166.415 708.5 166.5C707.167 166.167 705.833 165.833 704.5 165.5C701.175 164.496 700.841 163.162 703.5 161.5Z" fill="#496C4B"/>
<path opacity="0.973" fill-rule="evenodd" clip-rule="evenodd" d="M394.5 160.5C395.497 160.47 396.164 160.97 396.5 162C397.067 165.657 398.734 168.49 401.5 170.5C400.458 171.791 399.292 171.791 398 170.5C396.526 167.244 395.36 163.911 394.5 160.5Z" fill="#4A734F"/>
<path opacity="0.31" fill-rule="evenodd" clip-rule="evenodd" d="M674.5 153.5C672.288 160.255 669.288 166.588 665.5 172.5C667.712 165.745 670.712 159.412 674.5 153.5Z" fill="#365B47"/>
<path opacity="0.063" fill-rule="evenodd" clip-rule="evenodd" d="M360.5 167.5C359.699 169.042 359.366 170.708 359.5 172.5C356.695 170.244 357.028 168.577 360.5 167.5Z" fill="#16272B"/>
<path fill-rule="evenodd" clip-rule="evenodd" d="M477.5 306.5C488.143 306.481 492.81 311.815 491.5 322.5C484.806 322.782 478.973 320.782 474 316.5C472.756 312.191 473.923 308.858 477.5 306.5Z" fill="#5A9C54"/>
<path opacity="0.273" fill-rule="evenodd" clip-rule="evenodd" d="M615.5 309.5C605.161 309.334 594.828 309.5 584.5 310C575.865 311.494 567.199 312.661 558.5 313.5C577.267 308.659 596.267 307.326 615.5 309.5Z" fill="#3D6941"/>
<path fill-rule="evenodd" clip-rule="evenodd" d="M615.5 309.5C617.167 309.5 618.833 309.5 620.5 309.5C626.873 311.656 633.539 312.989 640.5 313.5C638.629 317.937 637.296 322.604 636.5 327.5C634.833 327.5 633.167 327.5 631.5 327.5C623.778 327.218 616.112 326.551 608.5 325.5C595.673 324.34 582.673 324.173 569.5 325C565.264 325.335 561.264 326.168 557.5 327.5C552.126 327.523 546.793 328.023 541.5 329C533.536 330.537 525.869 332.703 518.5 335.5C516.095 336.768 513.428 337.435 510.5 337.5C506.43 337.432 502.763 338.432 499.5 340.5C490.641 342.47 481.641 342.97 472.5 342C471.263 341.768 470.263 341.268 469.5 340.5C476.131 341.331 482.798 341.664 489.5 341.5C490.492 338.177 491.492 334.844 492.5 331.5C496.49 331.001 500.49 330.501 504.5 330C507.675 329.507 510.341 328.34 512.5 326.5C517.165 325.943 521.498 324.61 525.5 322.5C534.138 320.622 542.805 318.789 551.5 317C554.019 316.414 556.019 315.247 557.5 313.5C557.833 313.5 558.167 313.5 558.5 313.5C567.199 312.661 575.865 311.494 584.5 310C594.828 309.5 605.161 309.334 615.5 309.5Z" fill="#5FA557"/>
<path fill-rule="evenodd" clip-rule="evenodd" d="M499.5 308.5C503.09 308.544 505.59 310.211 507 313.5C508.45 318.885 506.617 320.552 501.5 318.5C500.198 315.292 499.531 311.959 499.5 308.5Z" fill="#4E874B"/>
<path fill-rule="evenodd" clip-rule="evenodd" d="M620.5 309.5C627.859 309.366 635.026 310.366 642 312.5C641.774 317.735 640.44 322.735 638 327.5C635.726 328.811 633.56 328.811 631.5 327.5C633.167 327.5 634.833 327.5 636.5 327.5C637.296 322.604 638.629 317.937 640.5 313.5C633.539 312.989 626.873 311.656 620.5 309.5Z" fill="#457646"/>
<path fill-rule="evenodd" clip-rule="evenodd" d="M465.5 319.5C465.955 323.082 467.955 325.415 471.5 326.5C472.306 327.728 473.306 328.728 474.5 329.5C471.405 329.626 469.572 331.293 469 334.5C468.691 335.766 468.191 336.933 467.5 338C468.381 338.708 469.047 339.542 469.5 340.5C457.944 335.005 454.777 326.339 460 314.5C460.689 313.643 461.522 312.977 462.5 312.5C464.082 314.577 465.082 316.91 465.5 319.5Z" fill="#5A9B54"/>
<path fill-rule="evenodd" clip-rule="evenodd" d="M557.5 313.5C556.019 315.247 554.019 316.414 551.5 317C542.805 318.789 534.138 320.622 525.5 322.5C535.807 318.587 546.474 315.587 557.5 313.5Z" fill="#498048"/>
<path opacity="0.737" fill-rule="evenodd" clip-rule="evenodd" d="M465.5 319.5C467.471 321.808 469.471 324.142 471.5 326.5C467.955 325.415 465.955 323.082 465.5 319.5Z" fill="#26392E"/>
<path opacity="0.992" fill-rule="evenodd" clip-rule="evenodd" d="M525.5 322.5C521.498 324.61 517.165 325.943 512.5 326.5C516.502 324.39 520.835 323.057 525.5 322.5Z" fill="#2D4D34"/>
<path opacity="0.259" fill-rule="evenodd" clip-rule="evenodd" d="M608.5 325.5C591.457 325.23 574.457 325.897 557.5 327.5C561.264 326.168 565.264 325.335 569.5 325C582.673 324.173 595.673 324.34 608.5 325.5Z" fill="#2D4E35"/>
<path opacity="0.435" fill-rule="evenodd" clip-rule="evenodd" d="M471.5 326.5C477.109 328.555 482.776 329.888 488.5 330.5C486.167 330.5 483.833 330.5 481.5 330.5C479.139 330.326 476.806 329.993 474.5 329.5C473.306 328.728 472.306 327.728 471.5 326.5Z" fill="#1B2E27"/>
<path opacity="0.322" fill-rule="evenodd" clip-rule="evenodd" d="M557.5 327.5C544.585 329.973 531.585 332.64 518.5 335.5C525.869 332.703 533.536 330.537 541.5 329C546.793 328.023 552.126 327.523 557.5 327.5Z" fill="#264130"/>
<path fill-rule="evenodd" clip-rule="evenodd" d="M474.5 329.5C476.806 329.993 479.139 330.326 481.5 330.5C484.962 331.482 488.629 331.815 492.5 331.5C491.492 334.844 490.492 338.177 489.5 341.5C482.798 341.664 476.131 341.331 469.5 340.5C469.047 339.542 468.381 338.708 467.5 338C468.191 336.933 468.691 335.766 469 334.5C469.572 331.293 471.405 329.626 474.5 329.5Z" fill="#7CBD75"/>
<path fill-rule="evenodd" clip-rule="evenodd" d="M512.5 326.5C510.341 328.34 507.675 329.507 504.5 330C500.49 330.501 496.49 331.001 492.5 331.5C488.629 331.815 484.962 331.482 481.5 330.5C483.833 330.5 486.167 330.5 488.5 330.5C496.528 329.562 504.528 328.229 512.5 326.5Z" fill="#3D6641"/>
<path fill-rule="evenodd" clip-rule="evenodd" d="M617.5 335.5C618.5 335.5 619.5 335.5 620.5 335.5C628.936 337.475 637.603 338.808 646.5 339.5C649.243 339.077 650.576 340.244 650.5 343C649.822 348.198 647.489 352.364 643.5 355.5C636.161 353.832 628.828 352.165 621.5 350.5C617.817 348.75 613.817 348.083 609.5 348.5C608.5 348.5 607.5 348.5 606.5 348.5C601.177 347.834 595.677 347.501 590 347.5C584.124 347.505 578.624 348.171 573.5 349.5C573.167 349.5 572.833 349.5 572.5 349.5C567.434 348.284 562.434 348.617 557.5 350.5C555.735 351.461 553.735 351.795 551.5 351.5C547.84 351.159 544.507 351.825 541.5 353.5C541.167 353.5 540.833 353.5 540.5 353.5C537.171 353.215 534.171 353.882 531.5 355.5C512.378 361.03 493.045 363.03 473.5 361.5C476.167 361.5 478.833 361.5 481.5 361.5C481.503 358.325 482.503 355.492 484.5 353C480.833 352.667 477.167 352.333 473.5 352C472.584 351.722 471.918 351.222 471.5 350.5C479.84 350.666 488.173 350.5 496.5 350C510.069 346.357 523.736 343.191 537.5 340.5C551.832 339.128 566.165 337.628 580.5 336C592.829 335.5 605.162 335.333 617.5 335.5Z" fill="#5DA156"/>
<path opacity="0.729" fill-rule="evenodd" clip-rule="evenodd" d="M620.5 335.5C629.447 335.865 638.113 337.198 646.5 339.5C637.603 338.808 628.936 337.475 620.5 335.5Z" fill="#33593A"/>
<path fill-rule="evenodd" clip-rule="evenodd" d="M453.5 339.5C452.542 339.047 451.708 338.381 451 337.5C450.506 339.134 450.34 340.801 450.5 342.5C448.547 339.76 448.214 336.76 449.5 333.5C451.337 335.176 452.67 337.176 453.5 339.5Z" fill="#385E3C"/>
<path fill-rule="evenodd" clip-rule="evenodd" d="M617.5 335.5C605.162 335.333 592.829 335.5 580.5 336C566.165 337.628 551.832 339.128 537.5 340.5C563.877 333.806 590.544 332.14 617.5 335.5Z" fill="#497E49"/>
<path opacity="0.11" fill-rule="evenodd" clip-rule="evenodd" d="M510.5 337.5C507.063 338.945 503.397 339.945 499.5 340.5C502.763 338.432 506.43 337.432 510.5 337.5Z" fill="#284C38"/>
<path fill-rule="evenodd" clip-rule="evenodd" d="M453.5 339.5C453.414 340.496 453.748 341.329 454.5 342C456.405 343.421 458.405 344.588 460.5 345.5C461.167 346.833 462.167 347.833 463.5 348.5C460.593 352.193 460.927 355.526 464.5 358.5C457.371 355.368 452.704 350.035 450.5 342.5C450.34 340.801 450.506 339.134 451 337.5C451.708 338.381 452.542 339.047 453.5 339.5Z" fill="#5A9A54"/>
<path opacity="0.592" fill-rule="evenodd" clip-rule="evenodd" d="M453.5 339.5C456.432 340.8 458.766 342.8 460.5 345.5C458.405 344.588 456.405 343.421 454.5 342C453.748 341.329 453.414 340.496 453.5 339.5Z" fill="#27402C"/>
<path opacity="0.161" fill-rule="evenodd" clip-rule="evenodd" d="M606.5 348.5C595.419 348.19 584.419 348.523 573.5 349.5C578.624 348.171 584.124 347.505 590 347.5C595.677 347.501 601.177 347.834 606.5 348.5Z" fill="#243C2E"/>
<path opacity="0.745" fill-rule="evenodd" clip-rule="evenodd" d="M460.5 345.5C464.126 347.37 467.792 349.037 471.5 350.5C468.659 350.44 465.993 349.774 463.5 348.5C462.167 347.833 461.167 346.833 460.5 345.5Z" fill="#2E4C38"/>
<path fill-rule="evenodd" clip-rule="evenodd" d="M609.5 348.5C613.817 348.083 617.817 348.75 621.5 350.5C617.316 350.149 613.316 349.482 609.5 348.5Z" fill="#2C4C35"/>
<path opacity="0.239" fill-rule="evenodd" clip-rule="evenodd" d="M572.5 349.5C567.493 349.751 562.493 350.084 557.5 350.5C562.434 348.617 567.434 348.284 572.5 349.5Z" fill="#2B4E36"/>
<path fill-rule="evenodd" clip-rule="evenodd" d="M463.5 348.5C465.993 349.774 468.659 350.44 471.5 350.5C471.918 351.222 472.584 351.722 473.5 352C477.167 352.333 480.833 352.667 484.5 353C482.503 355.492 481.503 358.325 481.5 361.5C478.833 361.5 476.167 361.5 473.5 361.5C470.084 361.472 467.084 360.472 464.5 358.5C460.927 355.526 460.593 352.193 463.5 348.5Z" fill="#7AB974"/>
<path fill-rule="evenodd" clip-rule="evenodd" d="M451.5 360.5C451.973 361.906 452.973 362.573 454.5 362.5C454.782 363.778 455.449 364.778 456.5 365.5C453.822 369.987 452.822 374.653 453.5 379.5C446.974 376.31 441.308 371.976 436.5 366.5C435.85 364.565 435.517 362.565 435.5 360.5C436.684 355.798 438.684 351.465 441.5 347.5C444.826 351.828 448.16 356.161 451.5 360.5Z" fill="#5B9E55"/>
<path opacity="0.29" fill-rule="evenodd" clip-rule="evenodd" d="M551.5 351.5C548.411 352.785 545.078 353.451 541.5 353.5C544.507 351.825 547.84 351.159 551.5 351.5Z" fill="#274632"/>
<path opacity="0.212" fill-rule="evenodd" clip-rule="evenodd" d="M540.5 353.5C537.727 354.657 534.727 355.324 531.5 355.5C534.171 353.882 537.171 353.215 540.5 353.5Z" fill="#24402F"/>
<path fill-rule="evenodd" clip-rule="evenodd" d="M619.5 359.5C619.833 359.5 620.167 359.5 620.5 359.5C621.429 360.315 622.429 361.148 623.5 362C628.496 362.611 633.496 363.111 638.5 363.5C642.83 364.332 646.996 365.665 651 367.5C650.63 372.236 649.13 376.569 646.5 380.5C643.372 385.767 641.039 391.434 639.5 397.5C637.936 400.274 636.103 402.941 634 405.5C633.498 408.513 632.998 411.513 632.5 414.5C630.069 418.111 628.403 422.111 627.5 426.5C623.751 432.674 621.085 439.341 619.5 446.5C616.549 453.4 613.882 460.4 611.5 467.5C593.74 462.015 575.74 458.349 557.5 456.5C539.283 454.526 521.283 455.859 503.5 460.5C487.761 464.246 471.761 467.246 455.5 469.5C448.833 469.5 442.167 469.5 435.5 469.5C437.363 465.245 439.03 460.912 440.5 456.5C445.434 456.771 450.1 456.104 454.5 454.5C454.833 454.5 455.167 454.5 455.5 454.5C461.216 454.773 466.549 453.773 471.5 451.5C482.017 448.864 492.684 446.864 503.5 445.5C510.736 445.235 517.736 444.235 524.5 442.5C539.122 441.367 553.789 441.2 568.5 442C574.412 442.615 580.079 443.782 585.5 445.5C585.611 446.117 585.944 446.617 586.5 447C591.569 447.425 596.569 448.259 601.5 449.5C603.975 448.323 604.975 446.323 604.5 443.5C611.796 424.596 619.462 405.929 627.5 387.5C629.72 384.875 631.386 381.875 632.5 378.5C631.323 376.025 629.323 375.025 626.5 375.5C619.515 374.407 612.515 373.407 605.5 372.5C595.342 371.341 585.008 371.175 574.5 372C569.611 372.354 564.944 373.187 560.5 374.5C556.542 374.251 552.876 374.918 549.5 376.5C549.167 376.5 548.833 376.5 548.5 376.5C545.171 376.215 542.171 376.882 539.5 378.5C517.222 384.602 494.556 387.102 471.5 386C469.618 385.802 467.952 385.302 466.5 384.5C468.167 384.5 469.833 384.5 471.5 384.5C472.403 380.111 474.069 376.111 476.5 372.5C481.167 372.5 485.833 372.5 490.5 372.5C497.17 372.111 503.836 371.611 510.5 371C514.547 369.397 518.547 367.897 522.5 366.5C529.283 364.678 536.283 363.344 543.5 362.5C552.231 361.878 560.897 360.712 569.5 359C586.177 358.355 602.844 358.522 619.5 359.5Z" fill="#5EA356"/>
<path opacity="0.031" fill-rule="evenodd" clip-rule="evenodd" d="M451.5 360.5C453.027 360.427 454.027 361.094 454.5 362.5C452.973 362.573 451.973 361.906 451.5 360.5Z" fill="#112821"/>
<path fill-rule="evenodd" clip-rule="evenodd" d="M619.5 359.5C602.844 358.522 586.177 358.355 569.5 359C560.897 360.712 552.231 361.878 543.5 362.5C568.663 356.355 593.996 355.355 619.5 359.5Z" fill="#406E43"/>
<path fill-rule="evenodd" clip-rule="evenodd" d="M620.5 359.5C626.809 359.959 632.809 361.293 638.5 363.5C633.496 363.111 628.496 362.611 623.5 362C622.429 361.148 621.429 360.315 620.5 359.5Z" fill="#457643"/>
<path opacity="0.871" fill-rule="evenodd" clip-rule="evenodd" d="M435.5 360.5C435.517 362.565 435.85 364.565 436.5 366.5C432.992 365.015 432.658 363.015 435.5 360.5Z" fill="#283C2C"/>
<path fill-rule="evenodd" clip-rule="evenodd" d="M454.5 362.5C457.696 363.929 460.696 365.595 463.5 367.5C461.079 367.122 458.746 366.455 456.5 365.5C455.449 364.778 454.782 363.778 454.5 362.5Z" fill="#253B30"/>
<path fill-rule="evenodd" clip-rule="evenodd" d="M456.5 365.5C458.746 366.455 461.079 367.122 463.5 367.5C464.574 369.284 466.24 370.451 468.5 371C471.365 371.183 474.031 371.683 476.5 372.5C474.069 376.111 472.403 380.111 471.5 384.5C469.833 384.5 468.167 384.5 466.5 384.5C461.539 384.176 457.206 382.509 453.5 379.5C452.822 374.653 453.822 369.987 456.5 365.5Z" fill="#7BBA74"/>
<path fill-rule="evenodd" clip-rule="evenodd" d="M463.5 367.5C472.24 370.456 481.24 371.79 490.5 371.5C490.5 371.833 490.5 372.167 490.5 372.5C485.833 372.5 481.167 372.5 476.5 372.5C474.031 371.683 471.365 371.183 468.5 371C466.24 370.451 464.574 369.284 463.5 367.5Z" fill="#375640"/>
<path fill-rule="evenodd" clip-rule="evenodd" d="M522.5 366.5C518.547 367.897 514.547 369.397 510.5 371C503.836 371.611 497.17 372.111 490.5 372.5C490.5 372.167 490.5 371.833 490.5 371.5C501.156 369.835 511.823 368.169 522.5 366.5Z" fill="#497E49"/>
<path fill-rule="evenodd" clip-rule="evenodd" d="M450.5 382.5C450.5 382.833 450.5 383.167 450.5 383.5C448.665 384.122 447.498 385.456 447 387.5C445.598 391.207 444.098 394.874 442.5 398.5C442.863 399.183 443.196 399.85 443.5 400.5C434.989 397.821 429.322 392.321 426.5 384C427.296 378.587 429.296 373.754 432.5 369.5C438.214 374.345 444.214 378.678 450.5 382.5Z" fill="#5A9D54"/>
<path opacity="0.129" fill-rule="evenodd" clip-rule="evenodd" d="M605.5 372.5C590.449 372.203 575.449 372.87 560.5 374.5C564.944 373.187 569.611 372.354 574.5 372C585.008 371.175 595.342 371.341 605.5 372.5Z" fill="#283D30"/>
<path opacity="0.059" fill-rule="evenodd" clip-rule="evenodd" d="M560.5 374.5C557.054 375.687 553.387 376.354 549.5 376.5C552.876 374.918 556.542 374.251 560.5 374.5Z" fill="#203C2B"/>
<path opacity="0.157" fill-rule="evenodd" clip-rule="evenodd" d="M548.5 376.5C545.727 377.657 542.727 378.324 539.5 378.5C542.171 376.882 545.171 376.215 548.5 376.5Z" fill="#213B2D"/>
<path fill-rule="evenodd" clip-rule="evenodd" d="M606.5 386.5C605.848 390.56 607.515 392.56 611.5 392.5C613.5 393.833 615.5 395.167 617.5 396.5C613.833 407.328 609.667 417.995 605 428.5C599.733 429.145 594.567 429.812 589.5 430.5C585.463 431.688 581.796 433.688 578.5 436.5C573.518 437.053 568.518 437.387 563.5 437.5C563.167 437.5 562.833 437.5 562.5 437.5C551.341 436.341 540.008 436.174 528.5 437C521.248 437.485 514.248 438.652 507.5 440.5C491.265 443.88 474.932 446.88 458.5 449.5C453.463 449.413 448.463 449.746 443.5 450.5C444.82 447.188 446.154 443.855 447.5 440.5C444.541 439.487 441.541 439.487 438.5 440.5C435.92 440.276 433.586 439.609 431.5 438.5C439.684 438.826 447.684 438.492 455.5 437.5C471.492 434.502 487.492 431.502 503.5 428.5C508.355 428.352 512.022 426.352 514.5 422.5C515.752 420.999 516.752 419.332 517.5 417.5C518.147 416.726 518.48 415.726 518.5 414.5C518.66 412.645 517.993 411.312 516.5 410.5C514.157 407.67 511.157 405.837 507.5 405C492 405.288 476.667 405.122 461.5 404.5C464.118 400.761 466.118 396.594 467.5 392C465.64 390.584 463.973 389.084 462.5 387.5C466.152 388.629 469.818 389.629 473.5 390.5C477.486 391.166 481.653 391.499 486 391.5C492.083 391.701 497.916 391.034 503.5 389.5C514.41 387.181 525.41 385.181 536.5 383.5C549.482 381.67 562.482 379.837 575.5 378C584.16 377.5 592.827 377.334 601.5 377.5C601.09 381.735 602.757 384.735 606.5 386.5Z" fill="#60A657"/>
<path fill-rule="evenodd" clip-rule="evenodd" d="M606.5 386.5C602.757 384.735 601.09 381.735 601.5 377.5C592.827 377.334 584.16 377.5 575.5 378C562.482 379.837 549.482 381.67 536.5 383.5C558.018 377.73 580.018 375.564 602.5 377C603.975 380.115 605.308 383.282 606.5 386.5Z" fill="#487D48"/>
<path fill-rule="evenodd" clip-rule="evenodd" d="M626.5 375.5C629.323 375.025 631.323 376.025 632.5 378.5C631.386 381.875 629.72 384.875 627.5 387.5C628.197 384.577 629.197 381.744 630.5 379C629.653 377.229 628.32 376.063 626.5 375.5Z" fill="#365E3B"/>
<path opacity="0.396" fill-rule="evenodd" clip-rule="evenodd" d="M646.5 380.5C644.961 386.566 642.628 392.233 639.5 397.5C641.039 391.434 643.372 385.767 646.5 380.5Z" fill="#2F5034"/>
<path fill-rule="evenodd" clip-rule="evenodd" d="M450.5 383.5C452.114 385.075 454.114 385.741 456.5 385.5C458.579 385.971 460.579 386.637 462.5 387.5C463.973 389.084 465.64 390.584 467.5 392C466.118 396.594 464.118 400.761 461.5 404.5C455.078 404.551 449.078 403.218 443.5 400.5C443.196 399.85 442.863 399.183 442.5 398.5C444.098 394.874 445.598 391.207 447 387.5C447.498 385.456 448.665 384.122 450.5 383.5Z" fill="#7AB974"/>
<path fill-rule="evenodd" clip-rule="evenodd" d="M450.5 383.5C450.5 383.167 450.5 382.833 450.5 382.5C452.819 382.992 454.819 383.992 456.5 385.5C454.114 385.741 452.114 385.075 450.5 383.5Z" fill="#324A35"/>
<path fill-rule="evenodd" clip-rule="evenodd" d="M503.5 389.5C497.916 391.034 492.083 391.701 486 391.5C481.653 391.499 477.486 391.166 473.5 390.5C483.518 390.59 493.518 390.257 503.5 389.5Z" fill="#305239"/>
<path fill-rule="evenodd" clip-rule="evenodd" d="M606.5 386.5C608.156 388.46 609.823 390.46 611.5 392.5C607.515 392.56 605.848 390.56 606.5 386.5Z" fill="#3F6B41"/>
<path fill-rule="evenodd" clip-rule="evenodd" d="M639.5 397.5C637.961 403.566 635.628 409.233 632.5 414.5C632.998 411.513 633.498 408.513 634 405.5C636.103 402.941 637.936 400.274 639.5 397.5Z" fill="#427343"/>
<path opacity="0.137" fill-rule="evenodd" clip-rule="evenodd" d="M516.5 410.5C517.993 411.312 518.66 412.645 518.5 414.5C518.48 415.726 518.147 416.726 517.5 417.5C517.552 415.097 517.219 412.764 516.5 410.5Z" fill="#1E352A"/>
<path opacity="0.455" fill-rule="evenodd" clip-rule="evenodd" d="M617.5 396.5C618.598 397.601 618.765 398.934 618 400.5C613.862 410.418 610.029 420.418 606.5 430.5C600.833 430.5 595.167 430.5 589.5 430.5C594.567 429.812 599.733 429.145 605 428.5C609.667 417.995 613.833 407.328 617.5 396.5Z" fill="#305438"/>
<path opacity="0.361" fill-rule="evenodd" clip-rule="evenodd" d="M632.5 414.5C631.597 418.889 629.931 422.889 627.5 426.5C628.403 422.111 630.069 418.111 632.5 414.5Z" fill="#2C4E35"/>
<path fill-rule="evenodd" clip-rule="evenodd" d="M455.5 437.5C447.684 438.492 439.684 438.826 431.5 438.5C429.396 438.201 427.396 438.534 425.5 439.5C424.727 442.431 423.727 445.264 422.5 448C429.296 450.222 436.296 451.055 443.5 450.5C448.463 449.746 453.463 449.413 458.5 449.5C447.719 452.458 436.719 452.958 425.5 451C412.802 447.079 406.969 438.579 408 425.5C408.368 424.09 409.201 423.09 410.5 422.5C413.188 425.362 415.521 428.528 417.5 432C420.112 433.889 422.945 435.389 426 436.5C435.793 437.463 445.626 437.796 455.5 437.5Z" fill="#538A4F"/>
<path fill-rule="evenodd" clip-rule="evenodd" d="M514.5 422.5C512.022 426.352 508.355 428.352 503.5 428.5C507.142 426.541 510.809 424.541 514.5 422.5Z" fill="#365B3B"/>
<path fill-rule="evenodd" clip-rule="evenodd" d="M254.5 444.5C255.666 442.834 255.666 441.167 254.5 439.5C253.548 441.045 253.215 442.712 253.5 444.5C253.515 451.978 249.848 454.811 242.5 453C241.29 451.961 240.29 450.794 239.5 449.5C238.771 444.87 238.437 440.203 238.5 435.5C239.855 432.482 242.188 431.149 245.5 431.5C245.5 432.833 245.5 434.167 245.5 435.5C244.594 438.436 243.928 441.436 243.5 444.5C244.5 444.5 245.5 444.5 246.5 444.5C246.342 441.098 246.676 437.764 247.5 434.5C249.749 430.748 253.082 429.581 257.5 431C263.62 437.463 263.953 444.129 258.5 451C257.207 451.49 255.873 451.657 254.5 451.5C254.5 449.167 254.5 446.833 254.5 444.5Z" fill="#73AE6F"/>
<path opacity="0.686" fill-rule="evenodd" clip-rule="evenodd" d="M790.5 431.5C785.949 430.658 782.283 431.992 779.5 435.5C779.859 433.629 780.859 432.129 782.5 431C785.367 430.199 788.034 430.366 790.5 431.5Z" fill="#486D4D"/>
<path fill-rule="evenodd" clip-rule="evenodd" d="M790.5 431.5C791.5 431.833 792.167 432.5 792.5 433.5C793.152 434.725 794.319 435.392 796 435.5C798.239 434.909 800.406 434.242 802.5 433.5C802.5 435.5 802.5 437.5 802.5 439.5C801.965 441.446 800.632 442.446 798.5 442.5C795.05 441.756 793.384 443.09 793.5 446.5C799.164 445.499 801.498 447.833 800.5 453.5C799.791 454.404 798.791 454.737 797.5 454.5C791.431 452.625 785.098 451.625 778.5 451.5C778.916 446.507 779.249 441.507 779.5 436.5C779.5 436.167 779.5 435.833 779.5 435.5C782.283 431.992 785.949 430.658 790.5 431.5ZM787.5 442.5C785.647 443.614 785.147 442.948 786 440.5C786.717 441.044 787.217 441.711 787.5 442.5Z" fill="#7BBA75"/>
<path opacity="0.937" fill-rule="evenodd" clip-rule="evenodd" d="M802.5 439.5C802.5 437.5 802.5 435.5 802.5 433.5C800.406 434.242 798.239 434.909 796 435.5C794.319 435.392 793.152 434.725 792.5 433.5C793.496 433.414 794.329 433.748 795 434.5C797.621 433.009 800.455 432.342 803.5 432.5C803.802 435.059 803.468 437.393 802.5 439.5Z" fill="#4D7651"/>
<path opacity="0.227" fill-rule="evenodd" clip-rule="evenodd" d="M562.5 437.5C544.08 437.058 525.746 438.058 507.5 440.5C514.248 438.652 521.248 437.485 528.5 437C540.008 436.174 551.341 436.341 562.5 437.5Z" fill="#264331"/>
<path opacity="0.486" fill-rule="evenodd" clip-rule="evenodd" d="M627.5 426.5C625.352 433.449 622.686 440.116 619.5 446.5C621.085 439.341 623.751 432.674 627.5 426.5Z" fill="#345739"/>
<path opacity="0.553" fill-rule="evenodd" clip-rule="evenodd" d="M578.5 436.5C577.878 437.627 577.045 438.627 576 439.5C571.732 438.86 567.565 438.193 563.5 437.5C568.518 437.387 573.518 437.053 578.5 436.5Z" fill="#325339"/>
<path fill-rule="evenodd" clip-rule="evenodd" d="M431.5 438.5C433.586 439.609 435.92 440.276 438.5 440.5C441.541 439.487 444.541 439.487 447.5 440.5C446.154 443.855 444.82 447.188 443.5 450.5C436.296 451.055 429.296 450.222 422.5 448C423.727 445.264 424.727 442.431 425.5 439.5C427.396 438.534 429.396 438.201 431.5 438.5Z" fill="#7EBF77"/>
<path opacity="0.01" fill-rule="evenodd" clip-rule="evenodd" d="M247.5 434.5C246.676 437.764 246.342 441.098 246.5 444.5C245.5 444.5 244.5 444.5 243.5 444.5C243.928 441.436 244.594 438.436 245.5 435.5C246.167 435.167 246.833 434.833 247.5 434.5Z" fill="#202F2B"/>
<path opacity="0.118" fill-rule="evenodd" clip-rule="evenodd" d="M254.5 444.5C254.167 444.5 253.833 444.5 253.5 444.5C253.215 442.712 253.548 441.045 254.5 439.5C255.666 441.167 255.666 442.834 254.5 444.5Z" fill="#131F21"/>
<path opacity="0.753" fill-rule="evenodd" clip-rule="evenodd" d="M238.5 435.5C238.437 440.203 238.771 444.87 239.5 449.5C238.027 446.983 237.36 444.15 237.5 441C237.506 438.967 237.839 437.134 238.5 435.5Z" fill="#44684A"/>
<path fill-rule="evenodd" clip-rule="evenodd" d="M524.5 442.5C517.736 444.235 510.736 445.235 503.5 445.5C510.251 443.678 517.251 442.678 524.5 442.5Z" fill="#3A643E"/>
<path fill-rule="evenodd" clip-rule="evenodd" d="M779.5 436.5C779.249 441.507 778.916 446.507 778.5 451.5C777.174 446.421 777.507 441.421 779.5 436.5Z" fill="#4A704F"/>
<path opacity="0.082" fill-rule="evenodd" clip-rule="evenodd" d="M787.5 442.5C787.179 444.048 786.179 444.715 784.5 444.5C784.261 442.533 784.594 440.699 785.5 439C786.449 438.383 787.282 438.549 788 439.5C788.74 440.749 788.573 441.749 787.5 442.5ZM787.5 442.5C787.217 441.711 786.717 441.044 786 440.5C785.147 442.948 785.647 443.614 787.5 442.5Z" fill="#1D2E28"/>
<path fill-rule="evenodd" clip-rule="evenodd" d="M429.5 455.5C429.5 455.833 429.5 456.167 429.5 456.5C426.279 455.427 423.112 455.427 420 456.5C419.667 455.833 419.333 455.167 419 454.5C416.725 458.014 416.225 461.681 417.5 465.5C408.451 459.746 403.785 451.413 403.5 440.5C404.552 440.351 405.552 440.517 406.5 441C411.949 449.271 419.616 454.104 429.5 455.5Z" fill="#538E4F"/>
<path fill-rule="evenodd" clip-rule="evenodd" d="M604.5 443.5C604.975 446.323 603.975 448.323 601.5 449.5C596.569 448.259 591.569 447.425 586.5 447C585.944 446.617 585.611 446.117 585.5 445.5C590.02 445.97 594.52 446.637 599 447.5C600.167 447.167 601.333 446.833 602.5 446.5C602.942 445.261 603.609 444.261 604.5 443.5Z" fill="#365B3C"/>
<path opacity="0.224" fill-rule="evenodd" clip-rule="evenodd" d="M798.5 442.5C797.602 443.158 796.602 443.824 795.5 444.5C800.884 445.56 802.55 448.56 800.5 453.5C801.498 447.833 799.164 445.499 793.5 446.5C793.384 443.09 795.05 441.756 798.5 442.5Z" fill="#37553F"/>
<path fill-rule="evenodd" clip-rule="evenodd" d="M778.5 451.5C785.098 451.625 791.431 452.625 797.5 454.5C790.876 454.508 784.543 453.508 778.5 451.5Z" fill="#4A714E"/>
<path fill-rule="evenodd" clip-rule="evenodd" d="M471.5 451.5C466.549 453.773 461.216 454.773 455.5 454.5C460.63 453.087 465.963 452.087 471.5 451.5Z" fill="#375E3B"/>
<path fill-rule="evenodd" clip-rule="evenodd" d="M429.5 456.5C433.167 456.5 436.833 456.5 440.5 456.5C439.03 460.912 437.363 465.245 435.5 469.5C430.346 469.706 425.346 469.039 420.5 467.5C418.973 467.573 417.973 466.906 417.5 465.5C416.225 461.681 416.725 458.014 419 454.5C419.333 455.167 419.667 455.833 420 456.5C423.112 455.427 426.279 455.427 429.5 456.5Z" fill="#7BBB75"/>
<path opacity="0.055" fill-rule="evenodd" clip-rule="evenodd" d="M454.5 454.5C450.1 456.104 445.434 456.771 440.5 456.5C436.833 456.5 433.167 456.5 429.5 456.5C429.5 456.167 429.5 455.833 429.5 455.5C437.858 455.621 446.191 455.288 454.5 454.5Z" fill="#223C37"/>
<path opacity="0.263" fill-rule="evenodd" clip-rule="evenodd" d="M557.5 456.5C539.398 456.59 521.398 457.923 503.5 460.5C521.283 455.859 539.283 454.526 557.5 456.5Z" fill="#274030"/>
<path fill-rule="evenodd" clip-rule="evenodd" d="M779.5 463.5C780.404 464.209 780.737 465.209 780.5 466.5C778.573 469.137 778.073 472.137 779 475.5C781.039 474.022 781.872 472.022 781.5 469.5C781.414 468.504 781.748 467.671 782.5 467C787.497 465.5 789.163 467 787.5 471.5C786.207 473.364 786.207 475.364 787.5 477.5C788.298 477.043 788.631 476.376 788.5 475.5C788.826 472.689 789.659 470.022 791 467.5C792.726 466.424 794.559 466.257 796.5 467C797.199 471.375 796.532 475.542 794.5 479.5C793.076 481.515 792.41 483.848 792.5 486.5C788.039 487.31 783.706 486.644 779.5 484.5C777.077 482.145 774.077 481.145 770.5 481.5C770.5 480.167 770.5 478.833 770.5 477.5C770.232 475.901 770.566 474.568 771.5 473.5C772.933 470.718 774.1 467.718 775 464.5C776.356 463.62 777.856 463.286 779.5 463.5Z" fill="#73AE6E"/>
<path fill-rule="evenodd" clip-rule="evenodd" d="M247.5 485.5C248.331 481.524 248.497 477.524 248 473.5C245.761 472.111 243.928 470.444 242.5 468.5C242.5 467.167 242.5 465.833 242.5 464.5C250.591 464.492 258.591 465.325 266.5 467C268.97 469.763 269.804 472.93 269 476.5C263.431 481.035 257.597 485.201 251.5 489C248.51 489.847 247.176 488.68 247.5 485.5Z" fill="#70AA6C"/>
<path fill-rule="evenodd" clip-rule="evenodd" d="M242.5 468.5C243.928 470.444 245.761 472.111 248 473.5C248.497 477.524 248.331 481.524 247.5 485.5C246.927 482.341 246.76 479.008 247 475.5C244.453 473.796 242.953 471.463 242.5 468.5Z" fill="#3A5740"/>
<path fill-rule="evenodd" clip-rule="evenodd" d="M420.5 467.5C425.346 469.039 430.346 469.706 435.5 469.5C442.167 469.5 448.833 469.5 455.5 469.5C445.675 471.848 435.675 472.015 425.5 470C423.509 469.626 421.842 468.793 420.5 467.5Z" fill="#457346"/>
<path opacity="0.957" fill-rule="evenodd" clip-rule="evenodd" d="M779.5 463.5C777.856 463.286 776.356 463.62 775 464.5C774.1 467.718 772.933 470.718 771.5 473.5C771.814 470.053 772.648 466.72 774 463.5C775.943 462.193 777.777 462.193 779.5 463.5Z" fill="#436749"/>
<path fill-rule="evenodd" clip-rule="evenodd" d="M253.5 472.5C261.297 473.051 261.297 474.051 253.5 475.5C253.5 474.5 253.5 473.5 253.5 472.5Z" fill="#36543F"/>
<path opacity="0.067" fill-rule="evenodd" clip-rule="evenodd" d="M780.5 466.5C780.263 467.791 780.596 468.791 781.5 469.5C781.872 472.022 781.039 474.022 779 475.5C778.073 472.137 778.573 469.137 780.5 466.5Z" fill="#294034"/>
<path opacity="0.533" fill-rule="evenodd" clip-rule="evenodd" d="M787.5 471.5C787.232 473.099 787.566 474.432 788.5 475.5C788.631 476.376 788.298 477.043 787.5 477.5C786.207 475.364 786.207 473.364 787.5 471.5Z" fill="#19252A"/>
<path opacity="0.365" fill-rule="evenodd" clip-rule="evenodd" d="M794.5 479.5C794.59 482.152 793.924 484.485 792.5 486.5C792.41 483.848 793.076 481.515 794.5 479.5Z" fill="#335441"/>
<path opacity="0.973" fill-rule="evenodd" clip-rule="evenodd" d="M770.5 477.5C770.5 478.833 770.5 480.167 770.5 481.5C774.077 481.145 777.077 482.145 779.5 484.5C776.123 484.041 772.789 483.374 769.5 482.5C769.216 480.585 769.549 478.919 770.5 477.5Z" fill="#456A4B"/>
<path fill-rule="evenodd" clip-rule="evenodd" d="M268.5 503.5C264.427 505.006 264.593 506.006 269 506.5C272.804 505.795 276.637 505.462 280.5 505.5C281.939 507.588 282.606 509.921 282.5 512.5C281.167 512.5 279.833 512.5 278.5 512.5C271.5 512.5 264.5 512.5 257.5 512.5C256.737 509.859 256.57 507.192 257 504.5C260.038 501.631 262.871 498.631 265.5 495.5C272.316 486.629 275.65 487.629 275.5 498.5C273.408 500.605 271.075 502.272 268.5 503.5Z" fill="#74B06F"/>
<path fill-rule="evenodd" clip-rule="evenodd" d="M773.5 501.5C772.5 501.5 771.5 501.5 770.5 501.5C770.5 498.833 770.5 496.167 770.5 493.5C768.833 493.5 767.167 493.5 765.5 493.5C763.742 500.061 761.409 506.394 758.5 512.5C759.335 505.326 761.668 498.326 765.5 491.5C770.766 490.6 772.766 492.767 771.5 498C771.978 499.303 772.645 500.469 773.5 501.5Z" fill="#4F7953"/>
<path fill-rule="evenodd" clip-rule="evenodd" d="M773.5 501.5C776.569 503.701 779.902 505.368 783.5 506.5C783.5 508.167 783.5 509.833 783.5 511.5C783.03 512.693 782.03 513.36 780.5 513.5C779.274 513.48 778.274 513.147 777.5 512.5C774.875 510.28 771.875 508.614 768.5 507.5C765.996 508.15 764.663 509.817 764.5 512.5C762.594 514.994 760.594 514.994 758.5 512.5C761.409 506.394 763.742 500.061 765.5 493.5C767.167 493.5 768.833 493.5 770.5 493.5C770.5 496.167 770.5 498.833 770.5 501.5C771.5 501.5 772.5 501.5 773.5 501.5Z" fill="#78B672"/>
<path fill-rule="evenodd" clip-rule="evenodd" d="M268.5 503.5C271.899 504.82 275.399 504.82 279 503.5C279.717 504.044 280.217 504.711 280.5 505.5C276.637 505.462 272.804 505.795 269 506.5C264.593 506.006 264.427 505.006 268.5 503.5Z" fill="#466D4C"/>
<path opacity="0.98" fill-rule="evenodd" clip-rule="evenodd" d="M773.5 501.5C778.416 502.075 782.416 504.242 785.5 508C784.915 509.302 784.249 510.469 783.5 511.5C783.5 509.833 783.5 508.167 783.5 506.5C779.902 505.368 776.569 503.701 773.5 501.5Z" fill="#456949"/>
<path fill-rule="evenodd" clip-rule="evenodd" d="M777.5 512.5C774.444 511.704 771.444 510.704 768.5 509.5C766.959 510.286 765.626 511.286 764.5 512.5C764.663 509.817 765.996 508.15 768.5 507.5C771.875 508.614 774.875 510.28 777.5 512.5Z" fill="#406346"/>
<path fill-rule="evenodd" clip-rule="evenodd" d="M265.5 495.5C262.871 498.631 260.038 501.631 257 504.5C256.57 507.192 256.737 509.859 257.5 512.5C264.5 512.5 271.5 512.5 278.5 512.5C272.491 513.268 266.324 513.934 260 514.5C258.893 514.415 257.893 514.081 257 513.5C255.682 510.57 255.015 507.57 255 504.5C258.098 500.893 261.598 497.893 265.5 495.5Z" fill="#3F5E45"/>
<path fill-rule="evenodd" clip-rule="evenodd" d="M285.5 520.5C286.675 520.281 287.675 520.614 288.5 521.5C292.434 527.019 294.934 533.019 296 539.5C293.283 542.321 290.95 541.987 289 538.5C286.612 544.682 283.612 545.015 280 539.5C281.091 542.328 281.425 545.328 281 548.5C279.612 549.554 278.112 549.72 276.5 549C272.072 544.312 269.072 538.812 267.5 532.5C268.01 530.912 269.01 529.745 270.5 529C275.887 526.646 280.887 523.812 285.5 520.5Z" fill="#6AA268"/>
<path opacity="0.551" fill-rule="evenodd" clip-rule="evenodd" d="M774.5 531.5C774.64 529.876 773.973 528.71 772.5 528C766.48 527.307 760.48 526.473 754.5 525.5C752.045 525.628 750.045 526.628 748.5 528.5C748.511 526.983 749.177 525.816 750.5 525C758.258 524.441 765.924 525.107 773.5 527C775.578 528.27 775.912 529.77 774.5 531.5Z" fill="#436549"/>
<path opacity="0.999" fill-rule="evenodd" clip-rule="evenodd" d="M774.5 531.5C774.043 533.773 772.71 535.106 770.5 535.5C768.089 535.137 766.589 536.137 766 538.5C765.666 540.847 765.833 543.181 766.5 545.5C766.365 548.372 765.031 549.872 762.5 550C755.922 544.773 750.922 538.44 747.5 531C747.528 529.93 747.861 529.097 748.5 528.5C750.045 526.628 752.045 525.628 754.5 525.5C760.48 526.473 766.48 527.307 772.5 528C773.973 528.71 774.64 529.876 774.5 531.5Z" fill="#74B06F"/>
<path opacity="0.302" fill-rule="evenodd" clip-rule="evenodd" d="M759.5 532.5C759.842 533.338 760.508 533.672 761.5 533.5C761.5 534.167 761.5 534.833 761.5 535.5C758.32 535.824 757.153 534.49 758 531.5C758.383 532.056 758.883 532.389 759.5 532.5Z" fill="#141F23"/>
<path opacity="0.624" fill-rule="evenodd" clip-rule="evenodd" d="M279.5 537.5C278.662 537.842 278.328 538.508 278.5 539.5C276.896 538.713 276.229 537.38 276.5 535.5C278.179 535.285 279.179 535.952 279.5 537.5Z" fill="#283F34"/>
<path opacity="0.486" fill-rule="evenodd" clip-rule="evenodd" d="M770.5 535.5C768.493 536.519 767.16 538.185 766.5 540.5C767.735 542.316 767.735 543.983 766.5 545.5C765.833 543.181 765.666 540.847 766 538.5C766.589 536.137 768.089 535.137 770.5 535.5Z" fill="#293F31"/>
<path fill-rule="evenodd" clip-rule="evenodd" d="M730.5 555.5C731.873 555.343 733.207 555.51 734.5 556C738.167 558.5 741.833 561 745.5 563.5C747.69 561.144 749.69 558.644 751.5 556C754.581 555.372 756.581 556.539 757.5 559.5C754.964 565.531 751.131 570.531 746 574.5C739.466 571.3 733.466 567.3 728 562.5C727.993 559.958 728.826 557.624 730.5 555.5Z" fill="#679C65"/>
<path fill-rule="evenodd" clip-rule="evenodd" d="M315.5 564.5C316.267 569.855 316.6 575.188 316.5 580.5C319.112 579.221 321.445 577.555 323.5 575.5C324.183 575.863 324.85 576.196 325.5 576.5C327.377 577.659 327.877 579.326 327 581.5C322.412 585.866 317.579 589.866 312.5 593.5C309.459 593.621 307.792 592.121 307.5 589C308.742 584.836 308.742 580.669 307.5 576.5C306.145 577.188 305.145 578.188 304.5 579.5C304.167 580.5 303.5 581.167 302.5 581.5C299.873 581.707 298.207 580.54 297.5 578C298.985 575.683 300.652 573.516 302.5 571.5C305.968 569.202 309.301 566.702 312.5 564C313.577 563.53 314.577 563.697 315.5 564.5Z" fill="#76B371"/>
<path opacity="0.906" fill-rule="evenodd" clip-rule="evenodd" d="M315.5 564.5C314.577 563.697 313.577 563.53 312.5 564C309.301 566.702 305.968 569.202 302.5 571.5C305.278 567.387 308.944 564.387 313.5 562.5C314.713 562.747 315.38 563.414 315.5 564.5Z" fill="#406146"/>
<path opacity="0.855" fill-rule="evenodd" clip-rule="evenodd" d="M315.5 564.5C316.117 564.611 316.617 564.944 317 565.5C317.333 569.833 317.667 574.167 318 578.5C319.684 576.649 321.517 574.982 323.5 573.5C324.919 574.005 325.585 575.005 325.5 576.5C324.85 576.196 324.183 575.863 323.5 575.5C321.445 577.555 319.112 579.221 316.5 580.5C316.6 575.188 316.267 569.855 315.5 564.5Z" fill="#36533E"/>
<path opacity="0.678" fill-rule="evenodd" clip-rule="evenodd" d="M302.5 571.5C300.652 573.516 298.985 575.683 297.5 578C298.207 580.54 299.873 581.707 302.5 581.5C297.655 582.817 295.822 580.817 297 575.5C298.451 573.536 300.284 572.203 302.5 571.5Z" fill="#314C39"/>
<path fill-rule="evenodd" clip-rule="evenodd" d="M706.5 594.5C704.952 594.821 704.285 595.821 704.5 597.5C706.38 597.771 707.713 597.104 708.5 595.5C710.254 592.366 712.754 591.366 716 592.5C716.49 593.793 716.657 595.127 716.5 596.5C712.207 597.749 710.541 600.416 711.5 604.5C714.804 602.86 717.471 600.527 719.5 597.5C723.104 596.079 724.604 597.413 724 601.5C719.946 606.057 715.446 610.057 710.5 613.5C706.189 610.855 702.522 607.521 699.5 603.5C698.611 601.264 697.278 599.264 695.5 597.5C697.523 595.147 699.523 592.814 701.5 590.5C703.585 586.292 706.918 584.459 711.5 585C712.411 589.316 710.745 592.482 706.5 594.5Z" fill="#6EA76B"/>
<path opacity="0.435" fill-rule="evenodd" clip-rule="evenodd" d="M312.5 593.5C311.116 594.801 309.616 594.801 308 593.5C307.285 588.493 306.118 583.826 304.5 579.5C305.145 578.188 306.145 577.188 307.5 576.5C308.742 580.669 308.742 584.836 307.5 589C307.792 592.121 309.459 593.621 312.5 593.5Z" fill="#466E4D"/>
<path fill-rule="evenodd" clip-rule="evenodd" d="M333.5 591.5C346.31 591.838 351.476 598.172 349 610.5C344.8 617.343 338.967 619.176 331.5 616C321.651 606.827 322.318 598.66 333.5 591.5ZM335.5 600.5C337.167 600.5 338.833 600.5 340.5 600.5C341.167 600.5 341.5 600.833 341.5 601.5C341.731 604.785 340.397 607.285 337.5 609C335.505 609.613 333.838 609.113 332.5 607.5C332.688 604.794 333.688 602.461 335.5 600.5Z" fill="#6FA76B"/>
<path opacity="0.839" fill-rule="evenodd" clip-rule="evenodd" d="M701.5 590.5C699.523 592.814 697.523 595.147 695.5 597.5C697.278 599.264 698.611 601.264 699.5 603.5C697.188 601.854 695.188 599.854 693.5 597.5C695.589 594.405 698.256 592.071 701.5 590.5Z" fill="#263A2D"/>
<path opacity="0.361" fill-rule="evenodd" clip-rule="evenodd" d="M706.5 594.5C706.842 595.338 707.508 595.672 708.5 595.5C707.713 597.104 706.38 597.771 704.5 597.5C704.285 595.821 704.952 594.821 706.5 594.5Z" fill="#223830"/>
<path opacity="0.01" fill-rule="evenodd" clip-rule="evenodd" d="M340.5 600.5C338.833 600.5 337.167 600.5 335.5 600.5C337.296 597.952 338.962 597.952 340.5 600.5Z" fill="#1D2D25"/>
<path opacity="0.098" fill-rule="evenodd" clip-rule="evenodd" d="M716.5 596.5C715.04 598.463 713.373 600.296 711.5 602C711.833 602.167 712.167 602.333 712.5 602.5C714.592 600.395 716.925 598.728 719.5 597.5C717.471 600.527 714.804 602.86 711.5 604.5C710.541 600.416 712.207 597.749 716.5 596.5Z" fill="#2D4E40"/>
<path fill-rule="evenodd" clip-rule="evenodd" d="M681.5 607.5C684.249 607.274 686.916 607.607 689.5 608.5C690.956 611.752 692.289 615.085 693.5 618.5C700.398 620.313 701.064 623.146 695.5 627C692.047 627.25 688.714 626.917 685.5 626C689.908 630.27 689.242 633.436 683.5 635.5C680.594 634.103 678.094 632.103 676 629.5C673.369 625.735 670.869 621.902 668.5 618C669.101 616.395 670.101 615.062 671.5 614C675.009 611.97 678.342 609.804 681.5 607.5ZM681.5 615.5C682.688 617.496 682.021 618.329 679.5 618C680.381 617.292 681.047 616.458 681.5 615.5Z" fill="#6EA66B"/>
<path fill-rule="evenodd" clip-rule="evenodd" d="M341.5 601.5C343.02 604.542 342.353 607.208 339.5 609.5C335.749 612.644 333.415 611.978 332.5 607.5C333.838 609.113 335.505 609.613 337.5 609C340.397 607.285 341.731 604.785 341.5 601.5Z" fill="#3B5A42"/>
<path fill-rule="evenodd" clip-rule="evenodd" d="M364.5 611.5C365.08 615.588 365.08 619.588 364.5 623.5C366.921 621.066 369.588 619.066 372.5 617.5C372.833 617.5 373.167 617.5 373.5 617.5C374.445 618.993 375.445 620.493 376.5 622C373.389 630.17 374.723 631.17 380.5 625C381.448 624.517 382.448 624.351 383.5 624.5C386.503 624.988 387.669 626.655 387 629.5C382.15 635.529 376.317 640.196 369.5 643.5C363.298 641.998 361.965 638.665 365.5 633.5C367.099 632.201 367.599 630.535 367 628.5C365.955 629.373 365.122 630.373 364.5 631.5C359.503 638.154 355.503 637.654 352.5 630C354.065 623.64 356.232 617.473 359 611.5C360.855 609.017 362.689 609.017 364.5 611.5Z" fill="#72AC6E"/>
<path opacity="0.878" fill-rule="evenodd" clip-rule="evenodd" d="M681.5 615.5C682.209 614.596 683.209 614.263 684.5 614.5C684.349 618.314 682.349 619.981 678.5 619.5C678.088 617.027 679.088 615.694 681.5 615.5ZM681.5 615.5C681.047 616.458 680.381 617.292 679.5 618C682.021 618.329 682.688 617.496 681.5 615.5Z" fill="#253B34"/>
<path opacity="0.753" fill-rule="evenodd" clip-rule="evenodd" d="M364.5 611.5C366.132 611.825 367.132 612.825 367.5 614.5C364.3 620.663 364.967 621.496 369.5 617C370.749 616.26 371.749 616.427 372.5 617.5C369.588 619.066 366.921 621.066 364.5 623.5C365.08 619.588 365.08 615.588 364.5 611.5Z" fill="#3D6248"/>
<path opacity="0.714" fill-rule="evenodd" clip-rule="evenodd" d="M373.5 617.5C374.721 618.028 375.887 618.695 377 619.5C377.374 621.898 377.374 624.231 377 626.5C378.351 624.981 379.851 623.648 381.5 622.5C382.522 622.855 383.189 623.522 383.5 624.5C382.448 624.351 381.448 624.517 380.5 625C374.723 631.17 373.389 630.17 376.5 622C375.445 620.493 374.445 618.993 373.5 617.5Z" fill="#2B4133"/>
<path fill-rule="evenodd" clip-rule="evenodd" d="M653.5 626.5C662.238 626.737 666.904 631.237 667.5 640C665.912 647.738 661.079 651.904 653 652.5C645.168 651.829 641.335 647.496 641.5 639.5C641.231 636.447 642.064 633.78 644 631.5C646.907 629.132 650.074 627.465 653.5 626.5ZM655.5 635.5C657.681 638.263 658.015 641.263 656.5 644.5C654.053 644.385 652.053 643.385 650.5 641.5C649.425 637.062 651.092 635.062 655.5 635.5Z" fill="#70AA6C"/>
<path opacity="0.024" fill-rule="evenodd" clip-rule="evenodd" d="M365.5 633.5C365.672 632.508 365.338 631.842 364.5 631.5C365.122 630.373 365.955 629.373 367 628.5C367.599 630.535 367.099 632.201 365.5 633.5Z" fill="#304538"/>
<path opacity="0.098" fill-rule="evenodd" clip-rule="evenodd" d="M655.5 635.5C651.092 635.062 649.425 637.062 650.5 641.5C648.082 635.744 649.749 633.744 655.5 635.5Z" fill="#1B2928"/>
<path fill-rule="evenodd" clip-rule="evenodd" d="M655.5 635.5C659.049 636.957 660.216 639.623 659 643.5C658.329 644.252 657.496 644.586 656.5 644.5C658.015 641.263 657.681 638.263 655.5 635.5Z" fill="#2A4136"/>
<path fill-rule="evenodd" clip-rule="evenodd" d="M630.5 645.5C632.365 651.097 634.032 656.763 635.5 662.5C635.158 663.338 634.492 663.672 633.5 663.5C632.022 663.762 630.689 663.429 629.5 662.5C625.782 653.083 624.782 653.416 626.5 663.5C626.737 664.791 626.404 665.791 625.5 666.5C623.473 666.662 621.473 666.495 619.5 666C618.12 664.075 616.62 662.241 615 660.5C616.016 663.607 616.516 666.94 616.5 670.5C614.33 671.768 612.163 671.768 610 670.5C606.437 663.81 604.103 656.81 603 649.5C604.725 648.536 606.559 647.869 608.5 647.5C610.621 647.325 612.621 647.659 614.5 648.5C616.262 649.262 617.262 650.596 617.5 652.5C617.369 653.376 617.702 654.043 618.5 654.5C619.227 650.459 619.894 646.459 620.5 642.5C625.437 639.007 628.77 640.007 630.5 645.5Z" fill="#75B171"/>
<path opacity="0.886" fill-rule="evenodd" clip-rule="evenodd" d="M650.5 641.5C652.053 643.385 654.053 644.385 656.5 644.5C653.336 646.191 651.336 645.191 650.5 641.5Z" fill="#2A4135"/>
<path opacity="0.906" fill-rule="evenodd" clip-rule="evenodd" d="M614.5 648.5C612.621 647.659 610.621 647.325 608.5 647.5C609.641 646.661 610.974 645.994 612.5 645.5C613.919 646.005 614.585 647.005 614.5 648.5Z" fill="#344E38"/>
<path fill-rule="evenodd" clip-rule="evenodd" d="M385.5 645.5C392.251 645.38 394.251 648.214 391.5 654C384.157 654.801 382.157 651.968 385.5 645.5Z" fill="#629462"/>
<path fill-rule="evenodd" clip-rule="evenodd" d="M443.5 653.5C438.323 650.314 432.656 648.98 426.5 649.5C431.057 647.069 435.724 647.236 440.5 650C442.063 650.759 443.063 651.926 443.5 653.5Z" fill="#568559"/>
<path fill-rule="evenodd" clip-rule="evenodd" d="M630.5 645.5C634.308 650.718 635.975 656.384 635.5 662.5C634.032 656.763 632.365 651.097 630.5 645.5Z" fill="#456949"/>
<path fill-rule="evenodd" clip-rule="evenodd" d="M426.5 649.5C432.656 648.98 438.323 650.314 443.5 653.5C444.461 655.265 444.795 657.265 444.5 659.5C443.5 659.5 442.5 659.5 441.5 659.5C439.111 658.946 437.445 657.446 436.5 655C435.365 654.251 434.365 654.417 433.5 655.5C433.624 656.107 433.957 656.44 434.5 656.5C436.147 658.326 438.147 659.66 440.5 660.5C441.94 661.946 442.607 663.779 442.5 666C442.486 667.385 442.152 668.551 441.5 669.5C437.134 671.371 432.467 672.038 427.5 671.5C422.631 669.818 420.464 666.484 421 661.5C422.011 660.663 423.178 660.33 424.5 660.5C424.5 661.167 424.833 661.5 425.5 661.5C426.933 662.833 428.267 664.333 429.5 666C430.944 666.781 432.277 666.614 433.5 665.5C433.043 664.702 432.376 664.369 431.5 664.5C430.024 662.5 428.191 660.833 426 659.5C425.341 656.112 425.508 652.779 426.5 649.5Z" fill="#76B371"/>
<path opacity="0.11" fill-rule="evenodd" clip-rule="evenodd" d="M620.5 642.5C619.894 646.459 619.227 650.459 618.5 654.5C617.702 654.043 617.369 653.376 617.5 652.5C618.776 649.97 618.776 647.303 617.5 644.5C618.005 643.081 619.005 642.415 620.5 642.5Z" fill="#314E3B"/>
<path fill-rule="evenodd" clip-rule="evenodd" d="M426.5 649.5C425.508 652.779 425.341 656.112 426 659.5C428.191 660.833 430.024 662.5 431.5 664.5C432.376 664.369 433.043 664.702 433.5 665.5C432.277 666.614 430.944 666.781 429.5 666C428.267 664.333 426.933 662.833 425.5 661.5C424.833 661.5 424.5 661.167 424.5 660.5C424.277 658.658 423.943 656.825 423.5 655C423.613 652.601 424.613 650.768 426.5 649.5Z" fill="#436549"/>
<path opacity="0.573" fill-rule="evenodd" clip-rule="evenodd" d="M456.5 656.5C460.265 655.226 463.931 655.559 467.5 657.5C463.846 657.058 460.179 656.724 456.5 656.5Z" fill="#324D3A"/>
<path fill-rule="evenodd" clip-rule="evenodd" d="M441.5 659.5C440.833 659.5 440.5 659.833 440.5 660.5C438.147 659.66 436.147 658.326 434.5 656.5C433.957 656.44 433.624 656.107 433.5 655.5C434.365 654.417 435.365 654.251 436.5 655C437.445 657.446 439.111 658.946 441.5 659.5Z" fill="#355340"/>
<path fill-rule="evenodd" clip-rule="evenodd" d="M456.5 656.5C460.179 656.724 463.846 657.058 467.5 657.5C475.069 658.665 477.569 662.998 475 670.5C473.961 671.71 472.794 672.71 471.5 673.5C467.833 673.5 464.167 673.5 460.5 673.5C460.166 677.648 457.833 679.315 453.5 678.5C454.982 671.57 455.982 664.57 456.5 657.5C456.5 657.167 456.5 656.833 456.5 656.5ZM464.5 663.5C466.852 664.543 467.019 665.876 465 667.5C463.232 666.318 463.065 664.985 464.5 663.5Z" fill="#76B471"/>
<path fill-rule="evenodd" clip-rule="evenodd" d="M633.5 663.5C631.312 664.623 628.979 664.623 626.5 663.5C624.782 653.416 625.782 653.083 629.5 662.5C630.689 663.429 632.022 663.762 633.5 663.5Z" fill="#3A5743"/>
<path fill-rule="evenodd" clip-rule="evenodd" d="M560.5 659.5C558.786 660.738 556.786 661.405 554.5 661.5C554.751 666.507 555.084 671.507 555.5 676.5C553.592 671.377 553.258 666.044 554.5 660.5C556.409 659.652 558.409 659.318 560.5 659.5Z" fill="#3B5C44"/>
<path fill-rule="evenodd" clip-rule="evenodd" d="M560.5 659.5C575.275 657.786 580.442 664.119 576 678.5C573.859 681.321 571.025 682.654 567.5 682.5C564.167 682.5 560.833 682.5 557.5 682.5C557.741 680.102 557.074 678.102 555.5 676.5C555.084 671.507 554.751 666.507 554.5 661.5C556.786 661.405 558.786 660.738 560.5 659.5ZM563.5 665.5C567.393 665.894 569.393 668.06 569.5 672C568.859 674.13 567.526 675.63 565.5 676.5C563.059 673.085 562.392 669.419 563.5 665.5Z" fill="#75B070"/>
<path fill-rule="evenodd" clip-rule="evenodd" d="M504.5 662.5C498.907 662.193 493.407 662.527 488 663.5C486.837 670.453 486.337 677.453 486.5 684.5C485.624 684.631 484.957 684.298 484.5 683.5C485.238 676.51 486.072 669.51 487 662.5C492.932 661.175 498.766 661.175 504.5 662.5Z" fill="#42664A"/>
<path fill-rule="evenodd" clip-rule="evenodd" d="M504.5 662.5C506.075 664.114 506.741 666.114 506.5 668.5C502.5 668.5 498.5 668.5 494.5 668.5C494.5 669.5 494.5 670.5 494.5 671.5C497.807 672.051 501.14 672.384 504.5 672.5C504.5 673.833 504.5 675.167 504.5 676.5C500.833 676.5 497.167 676.5 493.5 676.5C493.5 677.5 493.5 678.5 493.5 679.5C497.481 680.021 501.481 680.354 505.5 680.5C505.5 682.167 505.5 683.833 505.5 685.5C502.167 685.5 498.833 685.5 495.5 685.5C492.287 685.81 489.287 685.477 486.5 684.5C486.337 677.453 486.837 670.453 488 663.5C493.407 662.527 498.907 662.193 504.5 662.5Z" fill="#79B874"/>
<path fill-rule="evenodd" clip-rule="evenodd" d="M541.5 663.5C541.5 670.5 541.5 677.5 541.5 684.5C539.167 684.5 536.833 684.5 534.5 684.5C531.606 683.118 529.106 681.118 527 678.5C526.503 681.146 526.336 683.813 526.5 686.5C523.612 687.01 521.279 686.344 519.5 684.5C519.5 677.833 519.5 671.167 519.5 664.5C521.857 664.337 524.19 664.503 526.5 665C529.016 667.683 531.683 670.183 534.5 672.5C535.484 669.572 535.817 666.572 535.5 663.5C537.5 663.5 539.5 663.5 541.5 663.5Z" fill="#7AB974"/>
<path opacity="0.873" fill-rule="evenodd" clip-rule="evenodd" d="M541.5 663.5C539.5 663.5 537.5 663.5 535.5 663.5C535.817 666.572 535.484 669.572 534.5 672.5C531.683 670.183 529.016 667.683 526.5 665C524.19 664.503 521.857 664.337 519.5 664.5C519.5 671.167 519.5 677.833 519.5 684.5C518.345 677.679 518.179 670.679 519 663.5C521.064 662.409 523.231 662.242 525.5 663C528.63 665.128 531.463 667.628 534 670.5C534.497 667.854 534.664 665.187 534.5 662.5C537.059 662.198 539.393 662.532 541.5 663.5Z" fill="#4D7753"/>
<path opacity="0.439" fill-rule="evenodd" clip-rule="evenodd" d="M625.5 666.5C623.039 669.067 620.539 669.067 618 666.5C617.79 668.058 617.29 669.391 616.5 670.5C616.516 666.94 616.016 663.607 615 660.5C616.62 662.241 618.12 664.075 619.5 666C621.473 666.495 623.473 666.662 625.5 666.5Z" fill="#3A5840"/>
<path fill-rule="evenodd" clip-rule="evenodd" d="M441.5 669.5C441.426 671.411 440.426 672.578 438.5 673C434.523 673.879 430.856 673.379 427.5 671.5C432.467 672.038 437.134 671.371 441.5 669.5Z" fill="#476C4A"/>
<path fill-rule="evenodd" clip-rule="evenodd" d="M504.5 662.5C505.873 662.343 507.207 662.51 508.5 663C507.577 665.041 507.244 667.208 507.5 669.5C504.482 669.335 501.482 669.502 498.5 670C500.764 670.236 502.931 670.736 505 671.5C505.78 673.387 505.613 675.054 504.5 676.5C504.5 675.167 504.5 673.833 504.5 672.5C501.14 672.384 497.807 672.051 494.5 671.5C494.5 670.5 494.5 669.5 494.5 668.5C498.5 668.5 502.5 668.5 506.5 668.5C506.741 666.114 506.075 664.114 504.5 662.5Z" fill="#4A7351"/>
<path fill-rule="evenodd" clip-rule="evenodd" d="M456.5 657.5C455.982 664.57 454.982 671.57 453.5 678.5C452.535 671.302 453.535 664.302 456.5 657.5Z" fill="#4D7652"/>
<path opacity="0.118" fill-rule="evenodd" clip-rule="evenodd" d="M471.5 673.5C468.375 674.479 465.042 674.813 461.5 674.5C461.191 680.654 458.525 681.988 453.5 678.5C457.833 679.315 460.166 677.648 460.5 673.5C464.167 673.5 467.833 673.5 471.5 673.5Z" fill="#375843"/>
<path opacity="0.792" fill-rule="evenodd" clip-rule="evenodd" d="M504.5 676.5C501.695 677.319 498.695 677.819 495.5 678C499.038 678.535 502.372 679.368 505.5 680.5C501.481 680.354 497.481 680.021 493.5 679.5C493.5 678.5 493.5 677.5 493.5 676.5C497.167 676.5 500.833 676.5 504.5 676.5Z" fill="#324D3C"/>
<path fill-rule="evenodd" clip-rule="evenodd" d="M555.5 676.5C557.074 678.102 557.741 680.102 557.5 682.5C560.833 682.5 564.167 682.5 567.5 682.5C564.124 684.082 560.458 684.749 556.5 684.5C556.167 681.833 555.833 679.167 555.5 676.5Z" fill="#486F4E"/>
<path opacity="0.329" fill-rule="evenodd" clip-rule="evenodd" d="M541.5 663.5C542.492 670.982 542.825 678.648 542.5 686.5C540.143 686.663 537.81 686.497 535.5 686C534.944 685.617 534.611 685.117 534.5 684.5C536.833 684.5 539.167 684.5 541.5 684.5C541.5 677.5 541.5 670.5 541.5 663.5Z" fill="#527F56"/>
<path opacity="0.176" fill-rule="evenodd" clip-rule="evenodd" d="M505.5 680.5C506.461 682.265 506.795 684.265 506.5 686.5C502.629 686.815 498.962 686.482 495.5 685.5C498.833 685.5 502.167 685.5 505.5 685.5C505.5 683.833 505.5 682.167 505.5 680.5Z" fill="#3E5F44"/>
</svg>
