<svg className="logo-color" width="722" height="566" viewBox="0 0 722 566" fill="none" xmlns="http://www.w3.org/2000/svg">
<path fill-rule="evenodd" clip-rule="evenodd" d="M375.5 66.5C375.808 68.924 375.474 71.2573 374.5 73.5C371.553 74.4226 368.553 75.0893 365.5 75.5C365.5 73.8333 365.5 72.1667 365.5 70.5C363.533 70.2606 361.699 70.5939 360 71.5C359.5 78.4921 359.334 85.4921 359.5 92.5C361.167 92.5 362.833 92.5 364.5 92.5C364.5 91.5 364.5 90.5 364.5 89.5C363.5 89.5 362.5 89.5 361.5 89.5C361.5 86.5 361.5 83.5 361.5 80.5C364.518 80.2962 367.518 79.9629 370.5 79.5C372.167 79.5 373.833 79.5 375.5 79.5C375.5 86.5 375.5 93.5 375.5 100.5C366.833 100.5 358.167 100.5 349.5 100.5C349.333 89.1618 349.5 77.8284 350 66.5C350.833 65.6667 351.667 64.8333 352.5 64C358.833 63.3333 365.167 63.3333 371.5 64C372.984 64.6622 374.317 65.4955 375.5 66.5Z" fill="#F9F9DB"/>
<path fill-rule="evenodd" clip-rule="evenodd" d="M411.5 66.5C403.887 65.2698 396.22 64.6031 388.5 64.5C387.322 74.7057 385.655 84.7057 383.5 94.5C384.131 84.0469 385.631 73.7136 388 63.5C389.062 62.9032 390.228 62.5698 391.5 62.5C398.427 63.2058 405.094 64.5391 411.5 66.5Z" fill="#7C8079"/>
<path fill-rule="evenodd" clip-rule="evenodd" d="M334.5 66.4999C327.525 65.4949 320.525 65.4949 313.5 66.4999C319.198 64.2752 325.198 63.4418 331.5 63.9999C332.942 64.3767 333.942 65.21 334.5 66.4999Z" fill="#7C8079"/>
<path fill-rule="evenodd" clip-rule="evenodd" d="M411.5 66.5C412.492 66.3284 413.158 66.6618 413.5 67.5C413.682 69.5914 413.348 71.5914 412.5 73.5C407.726 73.5098 403.059 73.8431 398.5 74.5C397.532 76.6074 397.198 78.9407 397.5 81.5C399.833 81.5 402.167 81.5 404.5 81.5C404.5 83.5 404.5 85.5 404.5 87.5C401.615 87.1936 398.948 87.5269 396.5 88.5C395.203 90.6934 395.203 93.0268 396.5 95.5C400.448 96.4451 404.448 97.1118 408.5 97.5C408.326 99.861 407.993 102.194 407.5 104.5C399.461 104.225 391.461 103.558 383.5 102.5C382.167 99.8333 382.167 97.1667 383.5 94.5C385.655 84.7057 387.322 74.7057 388.5 64.5C396.22 64.6031 403.887 65.2698 411.5 66.5Z" fill="#F5F5D8"/>
<path fill-rule="evenodd" clip-rule="evenodd" d="M334.5 66.4998C334.833 66.4998 335.167 66.4998 335.5 66.4998C338.032 77.0232 339.698 87.6899 340.5 98.4998C338.738 99.2621 337.738 100.596 337.5 102.5C337.389 103.117 337.056 103.617 336.5 104C334.527 104.495 332.527 104.662 330.5 104.5C324.819 104.635 319.152 104.968 313.5 105.5C310.744 93.2984 308.744 80.965 307.5 68.4998C309.786 68.4048 311.786 67.7382 313.5 66.4998C320.525 65.4948 327.525 65.4948 334.5 66.4998ZM326.5 77.4998C326.792 82.5448 327.459 87.5448 328.5 92.4998C327.307 94.6335 325.473 95.9668 323 96.4998C322.376 92.082 321.543 87.7486 320.5 83.4998C320.336 80.8125 320.503 78.1458 321 75.4998C322.356 74.6196 323.856 74.2863 325.5 74.4998C325.263 75.7908 325.596 76.7908 326.5 77.4998Z" fill="#F4F4D7"/>
<path fill-rule="evenodd" clip-rule="evenodd" d="M313.5 66.5C311.786 67.7384 309.786 68.405 307.5 68.5C308.744 80.9652 310.744 93.2986 313.5 105.5C319.152 104.968 324.819 104.635 330.5 104.5C325.53 105.812 320.364 106.812 315 107.5C313.893 107.415 312.893 107.081 312 106.5C309.183 93.6009 307.017 80.6009 305.5 67.5C308.127 66.9084 310.794 66.5751 313.5 66.5Z" fill="#7E837A"/>
<path opacity="0.825" fill-rule="evenodd" clip-rule="evenodd" d="M375.5 66.5001C374.317 65.4956 372.984 64.6623 371.5 64.0001C365.167 63.3334 358.833 63.3334 352.5 64.0001C351.667 64.8334 350.833 65.6668 350 66.5001C349.5 77.8285 349.333 89.1619 349.5 100.5C358.167 100.5 366.833 100.5 375.5 100.5C375.5 93.5001 375.5 86.5001 375.5 79.5001C373.833 79.5001 372.167 79.5001 370.5 79.5001C370.5 79.1668 370.5 78.8334 370.5 78.5001C372.265 77.5387 374.265 77.2054 376.5 77.5001C376.831 85.5278 376.498 93.5278 375.5 101.5C366.554 102.472 357.554 102.806 348.5 102.5C348.821 90.9192 348.488 79.4192 347.5 68.0001C350.775 62.1224 355.775 59.9557 362.5 61.5001C365.5 61.6668 368.5 61.8334 371.5 62.0001C373.751 62.7476 375.084 64.2476 375.5 66.5001Z" fill="#A3A697"/>
<path opacity="0.784" fill-rule="evenodd" clip-rule="evenodd" d="M433.5 71.5C430.734 70.7682 428.068 70.7682 425.5 71.5C425.791 70.3509 426.624 69.6842 428 69.5C430.111 69.7006 431.945 70.3673 433.5 71.5Z" fill="#686B69"/>
<path fill-rule="evenodd" clip-rule="evenodd" d="M433.5 71.5C437.216 73.4053 441.216 74.7387 445.5 75.5C448.968 76.1009 452.301 77.1009 455.5 78.5C455.672 80.4918 455.005 82.1585 453.5 83.5C450.296 84.2036 447.129 84.8702 444 85.5C440.994 93.0189 438.494 100.686 436.5 108.5C436.737 109.791 436.404 110.791 435.5 111.5C432.235 112.46 428.902 112.46 425.5 111.5C424.12 111.038 423.453 110.038 423.5 108.5C424.057 105.235 425.057 102.235 426.5 99.5C428.484 94.5603 430.484 89.5603 432.5 84.5C432.392 83.5581 432.059 82.7247 431.5 82C428.854 81.5026 426.187 81.3359 423.5 81.5C424.167 78.1667 424.833 74.8333 425.5 71.5C428.068 70.7682 430.734 70.7682 433.5 71.5Z" fill="#EEEFD3"/>
<path fill-rule="evenodd" clip-rule="evenodd" d="M335.5 66.5C336.966 67.347 337.8 68.6803 338 70.5C339.339 79.0342 340.839 87.5342 342.5 96C342.361 97.301 341.695 98.1344 340.5 98.5C339.698 87.6901 338.032 77.0234 335.5 66.5Z" fill="#6C706C"/>
<path opacity="0.392" fill-rule="evenodd" clip-rule="evenodd" d="M433.5 71.5C437.915 71.8606 441.915 73.1939 445.5 75.5C441.216 74.7387 437.216 73.4053 433.5 71.5Z" fill="#484D4C"/>
<path opacity="0.137" fill-rule="evenodd" clip-rule="evenodd" d="M326.5 77.5001C325.596 76.7911 325.263 75.7911 325.5 74.5001C323.856 74.2866 322.356 74.6199 321 75.5001C320.503 78.1461 320.336 80.8128 320.5 83.5001C319.362 80.6966 319.195 77.6966 320 74.5001C322.041 73.577 324.208 73.2437 326.5 73.5001C326.5 74.8334 326.5 76.1668 326.5 77.5001Z" fill="#888F83"/>
<path opacity="0.922" fill-rule="evenodd" clip-rule="evenodd" d="M375.5 66.5C376.477 69.2869 376.81 72.2869 376.5 75.5C372.534 76.1621 368.534 76.4955 364.5 76.5C363.654 71.5714 362.321 71.4047 360.5 76C360.735 76.8732 361.069 77.7065 361.5 78.5C364.412 79.0685 367.412 79.0685 370.5 78.5C370.5 78.8333 370.5 79.1667 370.5 79.5C367.518 79.9629 364.518 80.2962 361.5 80.5C361.5 83.5 361.5 86.5 361.5 89.5C362.5 89.5 363.5 89.5 364.5 89.5C364.5 90.5 364.5 91.5 364.5 92.5C362.833 92.5 361.167 92.5 359.5 92.5C359.334 85.4921 359.5 78.4921 360 71.5C361.699 70.5939 363.533 70.2606 365.5 70.5C365.5 72.1667 365.5 73.8333 365.5 75.5C368.553 75.0893 371.553 74.4226 374.5 73.5C375.474 71.2573 375.808 68.924 375.5 66.5Z" fill="#7D8079"/>
<path fill-rule="evenodd" clip-rule="evenodd" d="M413.5 67.5C414.551 70.3442 414.551 73.3442 413.5 76.5C408.881 75.6864 404.214 75.3531 399.5 75.5C399.527 77.1993 400.194 78.5326 401.5 79.5C400.5 79.5 399.5 79.5 398.5 79.5C398.5 77.8333 398.5 76.1667 398.5 74.5C403.059 73.8431 407.726 73.5098 412.5 73.5C413.348 71.5914 413.682 69.5914 413.5 67.5Z" fill="#767A75"/>
<path fill-rule="evenodd" clip-rule="evenodd" d="M294.5 76.5C298.258 86.605 301.925 96.7717 305.5 107C302.508 108.931 299.508 110.765 296.5 112.5C290.326 116.226 283.66 117.893 276.5 117.5C275.253 115.677 274.586 113.677 274.5 111.5C273.568 106.356 271.901 101.689 269.5 97.5C268.739 93.2157 267.405 89.2157 265.5 85.5C264.861 84.9032 264.528 84.0698 264.5 83C264.684 81.6244 265.351 80.7911 266.5 80.5C269.181 80.5379 271.681 79.8713 274 78.5C274.902 78.7432 275.735 79.0766 276.5 79.5C276.5 79.8333 276.5 80.1667 276.5 80.5C279.02 88.8926 281.853 97.226 285 105.5C288.339 106.404 290.506 105.07 291.5 101.5C290.913 98.0345 289.579 95.0345 287.5 92.5C285.998 86.8472 284.831 81.1806 284 75.5C287.606 74.2369 291.106 74.5702 294.5 76.5Z" fill="#EFF0D4"/>
<path opacity="0.973" fill-rule="evenodd" clip-rule="evenodd" d="M425.5 71.5C424.833 74.8333 424.167 78.1667 423.5 81.5C422.247 77.8892 422.914 74.5559 425.5 71.5Z" fill="#70746D"/>
<path fill-rule="evenodd" clip-rule="evenodd" d="M276.5 79.5C275.735 79.0766 274.902 78.7432 274 78.5C271.681 79.8713 269.181 80.5379 266.5 80.5C268.633 78.8386 271.133 77.8386 274 77.5C275.376 77.6842 276.209 78.3509 276.5 79.5Z" fill="#797D75"/>
<path fill-rule="evenodd" clip-rule="evenodd" d="M276.5 80.5C279.934 87.9453 283.1 95.6119 286 103.5C288.085 104.647 289.585 103.98 290.5 101.5C289.295 98.5504 288.295 95.5504 287.5 92.5C289.579 95.0345 290.913 98.0345 291.5 101.5C290.506 105.07 288.339 106.404 285 105.5C281.853 97.226 279.02 88.8926 276.5 80.5Z" fill="#6C706B"/>
<path opacity="0.545" fill-rule="evenodd" clip-rule="evenodd" d="M294.5 76.4999C291.106 74.5701 287.606 74.2368 284 75.4999C284.831 81.1805 285.998 86.8471 287.5 92.4999C284.479 86.9267 282.979 80.9267 283 74.4999C287.308 72.0953 291.141 72.7619 294.5 76.4999Z" fill="#656964"/>
<path fill-rule="evenodd" clip-rule="evenodd" d="M473.5 96.4999C472.674 99.4847 471.341 102.151 469.5 104.5C465.406 110.351 462.073 116.685 459.5 123.5C455.804 124.351 452.471 123.351 449.5 120.5C454.381 109.069 459.548 97.7357 465 86.4999C469.117 85.46 472.617 86.6267 475.5 89.9999C473.987 91.8791 473.321 94.0458 473.5 96.4999Z" fill="#EEEFD3"/>
<path fill-rule="evenodd" clip-rule="evenodd" d="M294.5 76.5C299.682 86.0562 303.682 96.2229 306.5 107C306.167 107.833 305.833 108.667 305.5 109.5C302.573 110.801 299.573 111.801 296.5 112.5C299.508 110.765 302.508 108.931 305.5 107C301.925 96.7717 298.258 86.605 294.5 76.5Z" fill="#747771"/>
<path fill-rule="evenodd" clip-rule="evenodd" d="M398.5 74.5C398.5 76.1667 398.5 77.8333 398.5 79.5C399.5 79.5 400.5 79.5 401.5 79.5C403.167 79.5 404.833 79.5 406.5 79.5C406.663 81.8568 406.497 84.1902 406 86.5C405.29 87.9733 404.124 88.6399 402.5 88.5C400.5 88.5 398.5 88.5 396.5 88.5C398.948 87.5269 401.615 87.1936 404.5 87.5C404.5 85.5 404.5 83.5 404.5 81.5C402.167 81.5 399.833 81.5 397.5 81.5C397.198 78.9407 397.532 76.6074 398.5 74.5Z" fill="#B8BAA8"/>
<path opacity="0.384" fill-rule="evenodd" clip-rule="evenodd" d="M265.5 85.5C267.405 89.2157 268.739 93.2157 269.5 97.5C267.194 93.9155 265.861 89.9155 265.5 85.5Z" fill="#565856"/>
<path opacity="0.992" fill-rule="evenodd" clip-rule="evenodd" d="M423.5 81.5C426.187 81.3359 428.854 81.5026 431.5 82C432.059 82.7247 432.392 83.5581 432.5 84.5C430.484 89.5603 428.484 94.5603 426.5 99.5C427.316 94.5473 428.65 89.7139 430.5 85C428.452 83.168 426.119 82.0013 423.5 81.5Z" fill="#767874"/>
<path fill-rule="evenodd" clip-rule="evenodd" d="M254.5 91.5C249.365 91.2924 244.365 91.9591 239.5 93.5C244.021 89.0921 249.021 88.4255 254.5 91.5Z" fill="#888B81"/>
<path fill-rule="evenodd" clip-rule="evenodd" d="M254.5 91.4999C255.5 91.8332 256.167 92.4999 256.5 93.4999C257.835 97.3052 258.668 101.305 259 105.5C260.356 106.38 261.856 106.714 263.5 106.5C264.906 106.973 265.573 107.973 265.5 109.5C265.343 110.873 265.51 112.207 266 113.5C267.067 115.692 268.567 117.358 270.5 118.5C271.598 119.601 271.765 120.934 271 122.5C268.842 124.494 266.342 125.828 263.5 126.5C260.669 127.079 258.336 128.412 256.5 130.5C253.183 131.823 249.85 133.157 246.5 134.5C245.416 134.315 244.416 133.982 243.5 133.5C242.921 130.669 241.588 128.336 239.5 126.5C237.293 120.65 234.293 115.316 230.5 110.5C229.662 110.158 229.328 109.492 229.5 108.5C228.545 106.254 227.878 103.921 227.5 101.5C228.262 99.7375 229.596 98.7375 231.5 98.4999C232.873 98.6566 234.207 98.4899 235.5 97.9999C236.989 96.5314 238.323 95.0314 239.5 93.4999C244.365 91.959 249.365 91.2923 254.5 91.4999ZM243.5 103.5C246.957 103.667 247.29 104.667 244.5 106.5C243.614 105.675 243.281 104.675 243.5 103.5ZM251.5 116.5C255.123 117.411 255.29 118.745 252 120.5C251.51 119.207 251.343 117.873 251.5 116.5Z" fill="#F2F2D6"/>
<path opacity="0.671" fill-rule="evenodd" clip-rule="evenodd" d="M396.5 88.5C398.5 88.5 400.5 88.5 402.5 88.5C398.725 88.6157 397.058 90.6157 397.5 94.5C401.525 94.6301 405.191 95.6301 408.5 97.5C404.448 97.1118 400.448 96.4451 396.5 95.5C395.203 93.0268 395.203 90.6934 396.5 88.5Z" fill="#5E6461"/>
<path opacity="0.42" fill-rule="evenodd" clip-rule="evenodd" d="M455.5 78.5C456.754 80.3569 456.754 82.3569 455.5 84.5C451.616 84.9938 447.949 85.9938 444.5 87.5C442.198 94.7552 439.531 101.755 436.5 108.5C438.494 100.686 440.994 93.0189 444 85.5C447.129 84.8702 450.296 84.2036 453.5 83.5C455.005 82.1585 455.672 80.4918 455.5 78.5Z" fill="#5A5D5D"/>
<path fill-rule="evenodd" clip-rule="evenodd" d="M494.5 98.5001C495.833 99.8334 495.833 101.167 494.5 102.5C490.899 105.701 488.899 109.701 488.5 114.5C490.527 114.662 492.527 114.495 494.5 114C495.823 113.184 496.489 112.017 496.5 110.5C497.315 105.837 499.982 103.67 504.5 104C505.056 104.383 505.389 104.883 505.5 105.5C507.023 108.635 507.69 111.968 507.5 115.5C506.946 119.055 504.946 121.388 501.5 122.5C500.504 122.414 499.671 122.748 499 123.5C498.503 125.81 498.337 128.143 498.5 130.5C498.573 132.027 497.906 133.027 496.5 133.5C494.05 135.629 492.383 138.296 491.5 141.5C491.5 142.167 491.167 142.5 490.5 142.5C489.167 142.167 487.833 141.833 486.5 141.5C484.973 141.573 483.973 140.906 483.5 139.5C481.27 137.465 480.937 135.132 482.5 132.5C486.017 130.141 488.017 126.808 488.5 122.5C487.5 122.5 486.5 122.5 485.5 122.5C485.167 122.5 484.833 122.5 484.5 122.5C482.291 121.024 480.958 121.691 480.5 124.5C478.05 126.629 476.383 129.296 475.5 132.5C473.012 133.601 471.012 132.934 469.5 130.5C468.524 129.185 467.524 127.852 466.5 126.5C467.309 124.929 467.643 123.262 467.5 121.5C467.845 118.802 469.178 116.802 471.5 115.5C473.273 113.567 475.439 112.234 478 111.5C478.497 109.19 478.663 106.857 478.5 104.5C479.759 100.975 481.759 97.9755 484.5 95.5001C486.852 94.2879 488.685 94.9546 490 97.5001C491.44 98.1477 492.94 98.481 494.5 98.5001Z" fill="#EBECD1"/>
<path fill-rule="evenodd" clip-rule="evenodd" d="M494.5 98.5002C492.94 98.4811 491.44 98.1478 490 97.5002C488.685 94.9547 486.852 94.288 484.5 95.5002C485.204 93.656 486.537 93.156 488.5 94.0002C490.747 95.2777 492.747 96.7777 494.5 98.5002Z" fill="#929488"/>
<path fill-rule="evenodd" clip-rule="evenodd" d="M239.5 93.5C238.323 95.0315 236.989 96.5315 235.5 98C234.207 98.49 232.873 98.6567 231.5 98.5C233.629 96.0499 236.296 94.3833 239.5 93.5Z" fill="#A0A295"/>
<path fill-rule="evenodd" clip-rule="evenodd" d="M473.5 96.5C473.321 94.0459 473.987 91.8792 475.5 90C472.617 86.6268 469.117 85.4601 465 86.5C459.548 97.7358 454.381 109.069 449.5 120.5C448.402 119.399 448.235 118.066 449 116.5C453.728 106.044 458.728 95.7112 464 85.5C464.739 84.4258 465.739 83.7591 467 83.5C469.894 84.6968 472.727 86.0301 475.5 87.5C476.872 90.974 476.206 93.974 473.5 96.5Z" fill="#7C8077"/>
<path opacity="0.031" fill-rule="evenodd" clip-rule="evenodd" d="M340.5 98.5C340.262 100.404 339.262 101.738 337.5 102.5C337.738 100.596 338.738 99.2623 340.5 98.5Z" fill="#4F504F"/>
<path opacity="0.894" fill-rule="evenodd" clip-rule="evenodd" d="M227.5 101.5C227.878 103.921 228.545 106.254 229.5 108.5C227.821 107 226.488 105.167 225.5 103C226.044 102.283 226.711 101.783 227.5 101.5Z" fill="#63655E"/>
<path fill-rule="evenodd" clip-rule="evenodd" d="M408.5 97.5C409.551 100.344 409.551 103.344 408.5 106.5C399.92 105.89 391.586 104.557 383.5 102.5C391.461 103.558 399.461 104.225 407.5 104.5C407.993 102.194 408.326 99.861 408.5 97.5Z" fill="#87897E"/>
<path opacity="0.929" fill-rule="evenodd" clip-rule="evenodd" d="M256.5 93.5C257.79 94.0577 258.623 95.0577 259 96.5C259.182 99.2263 259.682 101.893 260.5 104.5C261.739 104.942 262.739 105.609 263.5 106.5C261.856 106.714 260.356 106.38 259 105.5C258.668 101.305 257.835 97.3053 256.5 93.5Z" fill="#6E726B"/>
<path opacity="0.498" fill-rule="evenodd" clip-rule="evenodd" d="M269.5 97.5C271.901 101.689 273.568 106.356 274.5 111.5C272.065 107.201 270.398 102.534 269.5 97.5Z" fill="#5D6763"/>
<path fill-rule="evenodd" clip-rule="evenodd" d="M244.5 100.5C249.982 103.272 249.815 105.939 244 108.5C242.558 107.788 241.725 106.621 241.5 105C242.315 103.357 243.315 101.857 244.5 100.5ZM243.5 103.5C243.281 104.675 243.614 105.675 244.5 106.5C247.29 104.667 246.957 103.667 243.5 103.5Z" fill="#3A3F44"/>
<path opacity="0.012" fill-rule="evenodd" clip-rule="evenodd" d="M494.5 102.5C492.892 105.8 491.225 109.133 489.5 112.5C490.723 113.614 492.056 113.781 493.5 113C494.373 111.955 495.373 111.122 496.5 110.5C496.489 112.017 495.823 113.184 494.5 114C492.527 114.495 490.527 114.662 488.5 114.5C488.899 109.701 490.899 105.701 494.5 102.5Z" fill="#565A58"/>
<path opacity="0.686" fill-rule="evenodd" clip-rule="evenodd" d="M469.5 104.5C466.927 111.315 463.594 117.649 459.5 123.5C462.073 116.685 465.406 110.351 469.5 104.5Z" fill="#80847C"/>
<path fill-rule="evenodd" clip-rule="evenodd" d="M478.5 104.5C478.663 106.857 478.497 109.19 478 111.5C475.439 112.234 473.273 113.567 471.5 115.5C472.121 112.879 473.788 111.212 476.5 110.5C477.169 108.369 477.835 106.369 478.5 104.5Z" fill="#646762"/>
<path opacity="0.263" fill-rule="evenodd" clip-rule="evenodd" d="M505.5 105.5C506.79 106.058 507.623 107.058 508 108.5C508.796 111.039 508.629 113.372 507.5 115.5C507.69 111.968 507.023 108.635 505.5 105.5Z" fill="#606362"/>
<path fill-rule="evenodd" clip-rule="evenodd" d="M425.5 111.5C428.902 112.46 432.235 112.46 435.5 111.5C435.582 113.252 434.749 114.252 433 114.5C430.28 113.767 427.78 112.767 425.5 111.5Z" fill="#797E76"/>
<path fill-rule="evenodd" clip-rule="evenodd" d="M265.5 109.5C267.924 112.008 269.59 115.008 270.5 118.5C268.567 117.358 267.067 115.692 266 113.5C265.51 112.207 265.343 110.873 265.5 109.5Z" fill="#878B80"/>
<path fill-rule="evenodd" clip-rule="evenodd" d="M251.5 114.5C254.321 114.316 255.988 115.649 256.5 118.5C253.318 122.705 250.985 122.371 249.5 117.5C249.942 116.261 250.609 115.261 251.5 114.5ZM251.5 116.5C251.343 117.873 251.51 119.207 252 120.5C255.29 118.745 255.123 117.411 251.5 116.5Z" fill="#34393E"/>
<path opacity="0.592" fill-rule="evenodd" clip-rule="evenodd" d="M230.5 110.5C234.293 115.316 237.293 120.65 239.5 126.5C235.707 121.684 232.707 116.35 230.5 110.5Z" fill="#5C615E"/>
<path opacity="0.09" fill-rule="evenodd" clip-rule="evenodd" d="M484.5 122.5C482.938 122.733 481.605 123.4 480.5 124.5C480.958 121.691 482.291 121.024 484.5 122.5Z" fill="#41494A"/>
<path fill-rule="evenodd" clip-rule="evenodd" d="M467.5 121.5C467.643 123.262 467.309 124.929 466.5 126.5C467.524 127.852 468.524 129.185 469.5 130.5C463.827 128.497 463.16 125.497 467.5 121.5Z" fill="#929487"/>
<path opacity="0.322" fill-rule="evenodd" clip-rule="evenodd" d="M480.5 124.5C479.617 127.704 477.95 130.371 475.5 132.5C476.383 129.296 478.05 126.629 480.5 124.5Z" fill="#515655"/>
<path opacity="0.255" fill-rule="evenodd" clip-rule="evenodd" d="M263.5 126.5C261.664 128.588 259.331 129.921 256.5 130.5C258.336 128.412 260.669 127.079 263.5 126.5Z" fill="#5D625F"/>
<path opacity="0.514" fill-rule="evenodd" clip-rule="evenodd" d="M239.5 126.5C241.588 128.336 242.921 130.669 243.5 133.5C241.412 131.664 240.079 129.331 239.5 126.5Z" fill="#5B605E"/>
<path opacity="0.098" fill-rule="evenodd" clip-rule="evenodd" d="M501.5 122.5C500.082 125.061 499.082 127.728 498.5 130.5C498.337 128.143 498.503 125.81 499 123.5C499.671 122.748 500.504 122.414 501.5 122.5Z" fill="#545654"/>
<path fill-rule="evenodd" clip-rule="evenodd" d="M485.5 122.5C486.5 122.5 487.5 122.5 488.5 122.5C488.017 126.808 486.017 130.141 482.5 132.5C483.295 129.577 484.628 126.91 486.5 124.5C486.137 123.817 485.804 123.15 485.5 122.5Z" fill="#979A8D"/>
<path fill-rule="evenodd" clip-rule="evenodd" d="M256.5 130.5C253.454 133.112 249.954 135.112 246 136.5C244.251 136.252 243.418 135.252 243.5 133.5C244.416 133.982 245.416 134.315 246.5 134.5C249.85 133.157 253.183 131.823 256.5 130.5Z" fill="#7F817C"/>
<path opacity="0.353" fill-rule="evenodd" clip-rule="evenodd" d="M496.5 133.5C495.617 136.704 493.95 139.371 491.5 141.5C492.383 138.296 494.05 135.629 496.5 133.5Z" fill="#595C5B"/>
<path opacity="0.702" fill-rule="evenodd" clip-rule="evenodd" d="M482.5 132.5C480.937 135.132 481.27 137.465 483.5 139.5C481.278 139.441 480.278 138.275 480.5 136C480.387 134.301 481.053 133.134 482.5 132.5Z" fill="#767870"/>
<path opacity="0.192" fill-rule="evenodd" clip-rule="evenodd" d="M486.5 141.5C487.833 141.833 489.167 142.167 490.5 142.5C488.872 143.853 487.538 143.519 486.5 141.5Z" fill="#4B504F"/>
<path fill-rule="evenodd" clip-rule="evenodd" d="M339.5 214.5C336.57 213.701 333.57 213.368 330.5 213.5C333.786 210.733 336.786 211.066 339.5 214.5Z" fill="#848582"/>
<path fill-rule="evenodd" clip-rule="evenodd" d="M330.5 213.5C333.57 213.368 336.57 213.701 339.5 214.5C340.219 216.764 340.552 219.097 340.5 221.5C337.833 221.5 335.167 221.5 332.5 221.5C330.774 219.18 330.107 216.513 330.5 213.5Z" fill="#F8F8DB"/>
<path fill-rule="evenodd" clip-rule="evenodd" d="M351.5 216.5C350.85 216.196 350.183 215.863 349.5 215.5C348.548 217.045 348.215 218.712 348.5 220.5C346.837 218.562 346.171 216.228 346.5 213.5C349.034 213.259 350.7 214.259 351.5 216.5Z" fill="#787B75"/>
<path fill-rule="evenodd" clip-rule="evenodd" d="M445.5 216.5C426.498 213.854 407.498 213.854 388.5 216.5C392.264 215.168 396.264 214.335 400.5 214C412.167 213.333 423.833 213.333 435.5 214C439.133 214.149 442.466 214.982 445.5 216.5Z" fill="#7C7E79"/>
<path fill-rule="evenodd" clip-rule="evenodd" d="M445.5 216.5C444.833 219.5 444.167 222.5 443.5 225.5C443.5 225.833 443.5 226.167 443.5 226.5C427.551 224.668 411.551 224.168 395.5 225C391.233 225.189 387.233 226.023 383.5 227.5C376.409 227.278 369.743 228.611 363.5 231.5C362.432 232.434 361.099 232.768 359.5 232.5C354.179 233.329 348.846 234.162 343.5 235C342.944 235.383 342.611 235.883 342.5 236.5C336.797 236.625 331.13 236.292 325.5 235.5C324.833 235.5 324.5 235.167 324.5 234.5C323.167 232.5 321.5 230.833 319.5 229.5C319.335 225.818 319.501 222.152 320 218.5C320.671 217.748 321.504 217.414 322.5 217.5C322.338 219.527 322.505 221.527 323 223.5C325.167 225 327.333 226.5 329.5 228C335.825 228.5 342.158 228.666 348.5 228.5C354.079 228.179 359.079 226.512 363.5 223.5C367.162 223.277 370.495 222.277 373.5 220.5C376.152 220.59 378.485 219.924 380.5 218.5C383.495 218.706 386.162 218.04 388.5 216.5C407.498 213.854 426.498 213.854 445.5 216.5Z" fill="#F4F4D8"/>
<path fill-rule="evenodd" clip-rule="evenodd" d="M330.5 213.5C330.107 216.513 330.774 219.18 332.5 221.5C328.854 220.538 327.687 218.205 329 214.5C329.383 213.944 329.883 213.611 330.5 213.5Z" fill="#A8A99B"/>
<path fill-rule="evenodd" clip-rule="evenodd" d="M351.5 216.5C351.5 217.833 351.5 219.167 351.5 220.5C350.5 220.5 349.5 220.5 348.5 220.5C348.215 218.712 348.548 217.045 349.5 215.5C350.183 215.863 350.85 216.196 351.5 216.5Z" fill="#EFEFD3"/>
<path fill-rule="evenodd" clip-rule="evenodd" d="M388.5 216.5C386.162 218.04 383.495 218.706 380.5 218.5C382.905 217.232 385.572 216.565 388.5 216.5Z" fill="#7B807A"/>
<path opacity="0.98" fill-rule="evenodd" clip-rule="evenodd" d="M380.5 218.5C378.485 219.924 376.152 220.59 373.5 220.5C375.515 219.076 377.848 218.41 380.5 218.5Z" fill="#767775"/>
<path opacity="0.702" fill-rule="evenodd" clip-rule="evenodd" d="M351.5 216.5C352.451 217.919 352.784 219.585 352.5 221.5C350.901 221.768 349.568 221.434 348.5 220.5C349.5 220.5 350.5 220.5 351.5 220.5C351.5 219.167 351.5 217.833 351.5 216.5Z" fill="#666965"/>
<path opacity="0.51" fill-rule="evenodd" clip-rule="evenodd" d="M445.5 216.5C446.541 219.748 445.874 222.748 443.5 225.5C444.167 222.5 444.833 219.5 445.5 216.5Z" fill="#484B4C"/>
<path opacity="0.935" fill-rule="evenodd" clip-rule="evenodd" d="M339.5 214.5C341.655 216.617 342.655 219.284 342.5 222.5C339.008 223.466 335.675 223.132 332.5 221.5C335.167 221.5 337.833 221.5 340.5 221.5C340.552 219.097 340.219 216.764 339.5 214.5Z" fill="#808179"/>
<path opacity="0.98" fill-rule="evenodd" clip-rule="evenodd" d="M373.5 220.5C370.495 222.277 367.162 223.277 363.5 223.5C366.505 221.723 369.838 220.723 373.5 220.5Z" fill="#7A7C78"/>
<path fill-rule="evenodd" clip-rule="evenodd" d="M322.5 217.5C321.504 217.414 320.671 217.748 320 218.5C319.501 222.152 319.335 225.818 319.5 229.5C316.85 225.441 316.85 221.274 319.5 217C320.749 216.26 321.749 216.427 322.5 217.5Z" fill="#92948A"/>
<path opacity="0.894" fill-rule="evenodd" clip-rule="evenodd" d="M322.5 217.5C323.888 222.058 326.888 225.225 331.5 227C337.157 227.499 342.824 227.666 348.5 227.5C348.5 227.833 348.5 228.167 348.5 228.5C342.158 228.666 335.825 228.5 329.5 228C327.333 226.5 325.167 225 323 223.5C322.505 221.527 322.338 219.527 322.5 217.5Z" fill="#515258"/>
<path opacity="0.045" fill-rule="evenodd" clip-rule="evenodd" d="M443.5 226.5C423.668 226.21 403.668 226.543 383.5 227.5C387.233 226.023 391.233 225.189 395.5 225C411.551 224.168 427.551 224.668 443.5 226.5Z" fill="#3B3D46"/>
<path fill-rule="evenodd" clip-rule="evenodd" d="M363.5 223.5C359.079 226.512 354.079 228.179 348.5 228.5C348.5 228.167 348.5 227.833 348.5 227.5C353.278 225.721 358.278 224.387 363.5 223.5Z" fill="#7E807C"/>
<path opacity="0.502" fill-rule="evenodd" clip-rule="evenodd" d="M383.5 227.5C377.025 229.195 370.359 230.528 363.5 231.5C369.743 228.611 376.409 227.278 383.5 227.5Z" fill="#4F5356"/>
<path opacity="0.01" fill-rule="evenodd" clip-rule="evenodd" d="M319.5 229.5C321.5 230.833 323.167 232.5 324.5 234.5C321.833 233.833 320.167 232.167 319.5 229.5Z" fill="#85857F"/>
<path fill-rule="evenodd" clip-rule="evenodd" d="M433.5 232.5C433.918 233.222 434.584 233.722 435.5 234C439.152 234.499 442.818 234.665 446.5 234.5C446.833 234.5 447.167 234.5 447.5 234.5C448.209 235.404 449.209 235.737 450.5 235.5C450.309 238.983 449.643 242.316 448.5 245.5C438.838 244.168 429.171 242.835 419.5 241.5C403.576 239.484 387.909 240.817 372.5 245.5C369.171 245.215 366.171 245.882 363.5 247.5C363.167 247.5 362.833 247.5 362.5 247.5C358.818 247.335 355.152 247.501 351.5 248C350.944 248.383 350.611 248.883 350.5 249.5C348.393 250.468 346.059 250.802 343.5 250.5C337.464 250.64 331.464 250.307 325.5 249.5C320.458 248.15 316.792 245.15 314.5 240.5C314.238 239.022 314.571 237.689 315.5 236.5C316.622 237.63 317.956 238.297 319.5 238.5C320.287 240.104 321.62 240.771 323.5 240.5C324.918 242.308 326.918 242.975 329.5 242.5C332.279 242.279 334.946 242.612 337.5 243.5C341.363 243.538 345.196 243.205 349 242.5C350.681 242.392 351.848 241.725 352.5 240.5C354.905 239.232 357.572 238.565 360.5 238.5C370.892 237.154 381.226 235.32 391.5 233C405.496 232.5 419.496 232.333 433.5 232.5Z" fill="#F0F0D4"/>
<path fill-rule="evenodd" clip-rule="evenodd" d="M433.5 232.5C438.1 232.28 442.433 232.946 446.5 234.5C442.818 234.665 439.152 234.499 435.5 234C434.584 233.722 433.918 233.222 433.5 232.5Z" fill="#8E918A"/>
<path fill-rule="evenodd" clip-rule="evenodd" d="M359.5 232.5C354.122 234.593 348.455 235.927 342.5 236.5C342.611 235.883 342.944 235.383 343.5 235C348.846 234.162 354.179 233.329 359.5 232.5Z" fill="#929289"/>
<path fill-rule="evenodd" clip-rule="evenodd" d="M319.5 238.5C317.956 238.297 316.622 237.63 315.5 236.5C314.571 237.689 314.238 239.022 314.5 240.5C312.132 238.044 311.132 235.044 311.5 231.5C312.552 231.351 313.552 231.517 314.5 232C315.999 234.328 317.666 236.495 319.5 238.5Z" fill="#888981"/>
<path fill-rule="evenodd" clip-rule="evenodd" d="M433.5 232.5C419.496 232.333 405.496 232.5 391.5 233C381.226 235.32 370.892 237.154 360.5 238.5C384.437 231.243 408.771 229.243 433.5 232.5Z" fill="#95968C"/>
<path opacity="0.635" fill-rule="evenodd" clip-rule="evenodd" d="M325.5 235.5C331.13 236.292 336.797 236.625 342.5 236.5C340.359 237.163 338.025 237.497 335.5 237.5C331.859 237.685 328.526 237.019 325.5 235.5Z" fill="#7D807A"/>
<path opacity="0.133" fill-rule="evenodd" clip-rule="evenodd" d="M319.5 238.5C321.153 238.66 322.486 239.326 323.5 240.5C321.62 240.771 320.287 240.104 319.5 238.5Z" fill="#292C31"/>
<path opacity="0.01" fill-rule="evenodd" clip-rule="evenodd" d="M323.5 240.5C325.698 240.875 327.698 241.542 329.5 242.5C326.918 242.975 324.918 242.308 323.5 240.5Z" fill="#383B3D"/>
<path opacity="0.188" fill-rule="evenodd" clip-rule="evenodd" d="M419.5 241.5C403.701 241.367 388.034 242.7 372.5 245.5C387.909 240.817 403.576 239.484 419.5 241.5Z" fill="#4F5255"/>
<path fill-rule="evenodd" clip-rule="evenodd" d="M352.5 240.5C351.848 241.725 350.681 242.392 349 242.5C345.196 243.205 341.363 243.538 337.5 243.5C342.35 242.377 347.35 241.377 352.5 240.5Z" fill="#717173"/>
<path opacity="0.965" fill-rule="evenodd" clip-rule="evenodd" d="M447.5 234.5C449.948 234.01 451.615 234.843 452.5 237C451.801 240.227 450.468 243.061 448.5 245.5C449.643 242.316 450.309 238.983 450.5 235.5C449.209 235.737 448.209 235.404 447.5 234.5Z" fill="#72746E"/>
<path fill-rule="evenodd" clip-rule="evenodd" d="M310.5 245.5C311.905 249.236 314.571 251.569 318.5 252.5C319.492 252.328 320.158 252.662 320.5 253.5C323.381 255.68 326.714 256.68 330.5 256.5C335.833 256.5 341.167 256.5 346.5 256.5C352.216 256.773 357.549 255.773 362.5 253.5C370.004 251.416 377.671 250.082 385.5 249.5C401.83 248.233 418.163 248.233 434.5 249.5C439.008 249.867 443.341 250.867 447.5 252.5C449.213 253.223 450.213 254.557 450.5 256.5C449.238 259.022 448.571 261.689 448.5 264.5C447.266 269.883 445.266 274.883 442.5 279.5C441.069 280.78 440.402 282.447 440.5 284.5C439.069 285.78 438.402 287.447 438.5 289.5C438.065 292.157 437.065 294.491 435.5 296.5C434.069 297.78 433.402 299.447 433.5 301.5C431.16 308.347 428.327 315.014 425 321.5C421.999 323.493 418.832 323.493 415.5 321.5C412.357 319.079 408.691 317.579 404.5 317C400.179 316.501 395.846 316.334 391.5 316.5C387.514 315.834 383.347 315.501 379 315.5C372.269 315.353 365.769 316.02 359.5 317.5C357.393 318.468 355.059 318.802 352.5 318.5C348.575 318.43 344.909 319.097 341.5 320.5C335.077 322.451 328.411 323.785 321.5 324.5C310.88 326.481 300.546 325.814 290.5 322.5C283.227 318.622 280.227 312.622 281.5 304.5C282.107 304.624 282.44 304.957 282.5 305.5C286.143 312.001 291.809 315.501 299.5 316C309.186 316.658 318.519 315.492 327.5 312.5C332.617 311.011 337.951 310.011 343.5 309.5C350.227 309.213 356.893 308.379 363.5 307C374.161 306.5 384.828 306.333 395.5 306.5C397.167 306.5 398.833 306.5 400.5 306.5C403.859 308.219 407.525 309.386 411.5 310C414.227 310.818 416.894 310.652 419.5 309.5C426.113 293.942 432.446 278.275 438.5 262.5C438.253 261.287 437.586 260.62 436.5 260.5C433.155 258.783 429.489 258.116 425.5 258.5C415.833 258.5 406.167 258.5 396.5 258.5C391.878 258.156 387.545 258.823 383.5 260.5C383.167 260.5 382.833 260.5 382.5 260.5C377.357 259.946 372.69 260.946 368.5 263.5C354.048 267.103 339.382 268.27 324.5 267C318.374 265.44 313.041 262.607 308.5 258.5C307.415 256.413 305.749 255.08 303.5 254.5C303.5 254.167 303.5 253.833 303.5 253.5C303.19 249.46 304.524 246.127 307.5 243.5C308.518 244.193 309.518 244.859 310.5 245.5Z" fill="#EBEBD1"/>
<path fill-rule="evenodd" clip-rule="evenodd" d="M310.5 245.5C309.518 244.859 308.518 244.193 307.5 243.5C304.524 246.127 303.19 249.46 303.5 253.5C302.305 253.134 301.639 252.301 301.5 251C302.762 246.874 304.595 243.04 307 239.5C308.421 241.405 309.588 243.405 310.5 245.5Z" fill="#80827B"/>
<path opacity="0.992" fill-rule="evenodd" clip-rule="evenodd" d="M310.5 245.5C313.192 247.862 315.859 250.196 318.5 252.5C314.571 251.569 311.905 249.236 310.5 245.5Z" fill="#595D5D"/>
<path opacity="0.192" fill-rule="evenodd" clip-rule="evenodd" d="M372.5 245.5C369.727 246.657 366.727 247.324 363.5 247.5C366.171 245.882 369.171 245.215 372.5 245.5Z" fill="#514D5D"/>
<path fill-rule="evenodd" clip-rule="evenodd" d="M362.5 247.5C358.733 248.795 354.733 249.461 350.5 249.5C350.611 248.883 350.944 248.383 351.5 248C355.152 247.501 358.818 247.335 362.5 247.5Z" fill="#9E9E93"/>
<path fill-rule="evenodd" clip-rule="evenodd" d="M434.5 249.5C418.163 248.233 401.83 248.233 385.5 249.5C401.845 245.655 418.179 245.655 434.5 249.5Z" fill="#A0A295"/>
<path opacity="0.035" fill-rule="evenodd" clip-rule="evenodd" d="M325.5 249.5C331.464 250.307 337.464 250.64 343.5 250.5C341.19 251.164 338.69 251.497 336 251.5C332.195 251.696 328.695 251.03 325.5 249.5Z" fill="#626565"/>
<path opacity="0.71" fill-rule="evenodd" clip-rule="evenodd" d="M303.5 254.5C305.749 255.08 307.415 256.413 308.5 258.5C306.251 257.92 304.585 256.587 303.5 254.5Z" fill="#555359"/>
<path opacity="0.439" fill-rule="evenodd" clip-rule="evenodd" d="M320.5 253.5C324.048 254.13 327.381 255.13 330.5 256.5C326.714 256.68 323.381 255.68 320.5 253.5Z" fill="#2A2D34"/>
<path fill-rule="evenodd" clip-rule="evenodd" d="M362.5 253.5C357.549 255.773 352.216 256.773 346.5 256.5C351.617 255.011 356.951 254.011 362.5 253.5Z" fill="#7C7E7B"/>
<path opacity="0.886" fill-rule="evenodd" clip-rule="evenodd" d="M447.5 252.5C449.484 252.383 451.15 253.05 452.5 254.5C451.672 258.138 450.339 261.471 448.5 264.5C448.571 261.689 449.238 259.022 450.5 256.5C450.213 254.557 449.213 253.223 447.5 252.5Z" fill="#8E9185"/>
<path opacity="0.01" fill-rule="evenodd" clip-rule="evenodd" d="M301.5 256.5C303.749 257.08 305.415 258.413 306.5 260.5C304.251 259.92 302.585 258.587 301.5 256.5Z" fill="#737475"/>
<path fill-rule="evenodd" clip-rule="evenodd" d="M301.5 256.5C302.585 258.587 304.251 259.92 306.5 260.5C307.141 261.482 307.807 262.482 308.5 263.5C311.987 265.621 315.487 267.621 319 269.5C320.902 270.497 323.069 270.497 325.5 269.5C326.609 270.29 327.942 270.79 329.5 271C335.833 271.667 342.167 271.667 348.5 271C352.718 270.158 356.718 268.992 360.5 267.5C360.833 267.5 361.167 267.5 361.5 267.5C365.897 267.575 370.23 267.075 374.5 266C375.056 265.617 375.389 265.117 375.5 264.5C379.714 263.298 384.048 262.631 388.5 262.5C393.731 262.556 398.731 261.889 403.5 260.5C408.5 260.5 413.5 260.5 418.5 260.5C418.279 264.868 419.946 268.202 423.5 270.5C423.828 273.172 425.328 274.839 428 275.5C428.483 276.448 428.649 277.448 428.5 278.5C427.069 279.78 426.402 281.447 426.5 283.5C423.542 287.691 421.542 292.358 420.5 297.5C416.154 297.334 411.821 297.501 407.5 298C406.584 298.278 405.918 298.778 405.5 299.5C403.973 299.427 402.973 300.094 402.5 301.5C402.082 302.222 401.416 302.722 400.5 303C385.821 303.315 371.154 303.815 356.5 304.5C349.152 304.666 342.152 306 335.5 308.5C333.236 309.219 330.903 309.552 328.5 309.5C325.482 309.335 322.482 309.502 319.5 310C318.944 310.383 318.611 310.883 318.5 311.5C308.97 314.6 299.636 314.1 290.5 310C287.921 308.924 286.254 307.091 285.5 304.5C283.421 295.038 285.421 294.038 291.5 301.5C293.777 302.421 296.11 303.087 298.5 303.5C305.841 303.666 313.174 303.5 320.5 303C323.742 302.594 326.742 301.761 329.5 300.5C335.754 298.916 342.087 297.582 348.5 296.5C351.082 296.975 353.082 296.308 354.5 294.5C359.187 292.797 361.02 289.463 360 284.5C358.871 282.859 357.371 281.859 355.5 281.5C355.082 280.778 354.416 280.278 353.5 280C345.988 279.178 338.655 279.345 331.5 280.5C326.833 280.5 322.167 280.5 317.5 280.5C315.485 279.076 313.152 278.41 310.5 278.5C305.678 277.002 301.678 274.336 298.5 270.5C297.701 267.57 297.368 264.57 297.5 261.5C298.833 259.833 300.167 258.167 301.5 256.5Z" fill="#F3F3D7"/>
<path fill-rule="evenodd" clip-rule="evenodd" d="M425.5 258.5C429.489 258.116 433.155 258.783 436.5 260.5C432.613 260.354 428.946 259.687 425.5 258.5Z" fill="#717371"/>
<path opacity="0.055" fill-rule="evenodd" clip-rule="evenodd" d="M396.5 258.5C392.361 259.563 388.028 260.23 383.5 260.5C387.545 258.823 391.878 258.156 396.5 258.5Z" fill="#3D3F44"/>
<path opacity="0.392" fill-rule="evenodd" clip-rule="evenodd" d="M301.5 256.5C300.167 258.167 298.833 259.833 297.5 261.5C297.892 259.821 298.392 258.154 299 256.5C299.977 255.226 300.811 255.226 301.5 256.5Z" fill="#5A5C5B"/>
<path fill-rule="evenodd" clip-rule="evenodd" d="M382.5 260.5C378.058 261.99 373.391 262.99 368.5 263.5C372.69 260.946 377.357 259.946 382.5 260.5Z" fill="#7F827B"/>
<path fill-rule="evenodd" clip-rule="evenodd" d="M403.5 260.5C398.731 261.889 393.731 262.556 388.5 262.5C393.269 261.111 398.269 260.444 403.5 260.5Z" fill="#9A9B91"/>
<path fill-rule="evenodd" clip-rule="evenodd" d="M306.5 260.5C312.478 264.323 318.811 267.323 325.5 269.5C323.069 270.497 320.902 270.497 319 269.5C315.487 267.621 311.987 265.621 308.5 263.5C307.807 262.482 307.141 261.482 306.5 260.5Z" fill="#8A8C82"/>
<path fill-rule="evenodd" clip-rule="evenodd" d="M375.5 264.5C375.389 265.117 375.056 265.617 374.5 266C370.23 267.075 365.897 267.575 361.5 267.5C365.942 266.01 370.609 265.01 375.5 264.5Z" fill="#999C8F"/>
<path opacity="0.871" fill-rule="evenodd" clip-rule="evenodd" d="M418.5 260.5C419.781 264 421.448 267.333 423.5 270.5C419.946 268.202 418.279 264.868 418.5 260.5Z" fill="#606564"/>
<path opacity="0.922" fill-rule="evenodd" clip-rule="evenodd" d="M297.5 261.5C297.368 264.57 297.701 267.57 298.5 270.5C294.938 267.828 294.605 264.828 297.5 261.5Z" fill="#777873"/>
<path fill-rule="evenodd" clip-rule="evenodd" d="M360.5 267.5C356.718 268.992 352.718 270.158 348.5 271C342.167 271.667 335.833 271.667 329.5 271C327.942 270.79 326.609 270.29 325.5 269.5C337.24 269.858 348.907 269.192 360.5 267.5Z" fill="#81827F"/>
<path fill-rule="evenodd" clip-rule="evenodd" d="M423.5 270.5C427.933 271.852 429.6 274.518 428.5 278.5C428.649 277.448 428.483 276.448 428 275.5C425.328 274.839 423.828 273.172 423.5 270.5Z" fill="#95978E"/>
<path opacity="0.212" fill-rule="evenodd" clip-rule="evenodd" d="M310.5 278.5C313.152 278.41 315.485 279.076 317.5 280.5C314.772 280.829 312.438 280.163 310.5 278.5Z" fill="#272A34"/>
<path opacity="0.404" fill-rule="evenodd" clip-rule="evenodd" d="M331.5 280.5C338.655 279.345 345.988 279.178 353.5 280C354.416 280.278 355.082 280.778 355.5 281.5C347.542 280.597 339.542 280.264 331.5 280.5Z" fill="#32353F"/>
<path opacity="0.38" fill-rule="evenodd" clip-rule="evenodd" d="M428.5 278.5C428.598 280.553 427.931 282.22 426.5 283.5C426.402 281.447 427.069 279.78 428.5 278.5Z" fill="#585A59"/>
<path opacity="0.345" fill-rule="evenodd" clip-rule="evenodd" d="M442.5 279.5C442.598 281.553 441.931 283.22 440.5 284.5C440.402 282.447 441.069 280.78 442.5 279.5Z" fill="#55565B"/>
<path opacity="0.286" fill-rule="evenodd" clip-rule="evenodd" d="M440.5 284.5C440.598 286.553 439.931 288.22 438.5 289.5C438.402 287.447 439.069 285.78 440.5 284.5Z" fill="#4D4F50"/>
<path opacity="0.847" fill-rule="evenodd" clip-rule="evenodd" d="M355.5 281.5C357.371 281.859 358.871 282.859 360 284.5C361.02 289.463 359.187 292.797 354.5 294.5C359.343 290.463 359.676 286.129 355.5 281.5Z" fill="#51555A"/>
<path opacity="0.424" fill-rule="evenodd" clip-rule="evenodd" d="M426.5 283.5C424.636 288.426 422.969 293.426 421.5 298.5C416.12 298.324 410.787 298.658 405.5 299.5C405.918 298.778 406.584 298.278 407.5 298C411.821 297.501 416.154 297.334 420.5 297.5C421.542 292.358 423.542 287.691 426.5 283.5Z" fill="#585B5C"/>
<path fill-rule="evenodd" clip-rule="evenodd" d="M298.5 302.5C298.5 302.833 298.5 303.167 298.5 303.5C296.11 303.087 293.777 302.421 291.5 301.5C285.421 294.038 283.421 295.038 285.5 304.5C283.467 303.102 282.467 301.102 282.5 298.5C282.453 295.927 283.453 293.927 285.5 292.5C288.686 297.355 293.019 300.689 298.5 302.5Z" fill="#919389"/>
<path fill-rule="evenodd" clip-rule="evenodd" d="M354.5 294.5C353.082 296.308 351.082 296.975 348.5 296.5C350.302 295.542 352.302 294.875 354.5 294.5Z" fill="#7C7E79"/>
<path fill-rule="evenodd" clip-rule="evenodd" d="M557.5 299.5C554.165 301.634 551.165 301.468 548.5 299C546.866 298.506 545.199 298.34 543.5 298.5C545.663 296.434 547.996 296.601 550.5 299C553.028 298.895 555.362 299.062 557.5 299.5Z" fill="#60645F"/>
<path opacity="0.467" fill-rule="evenodd" clip-rule="evenodd" d="M171.5 299.5C169.61 299.297 168.11 299.963 167 301.5C166.503 304.146 166.336 306.813 166.5 309.5C165.362 306.696 165.195 303.696 166 300.5C167.678 298.447 169.511 298.113 171.5 299.5Z" fill="#83867E"/>
<path fill-rule="evenodd" clip-rule="evenodd" d="M177.5 310.5C178.363 308.105 178.363 305.771 177.5 303.5C176.526 305.743 176.192 308.076 176.5 310.5C175.116 314.461 172.449 315.461 168.5 313.5C167.295 312.423 166.628 311.09 166.5 309.5C166.336 306.813 166.503 304.146 167 301.5C168.11 299.963 169.61 299.297 171.5 299.5C171.5 299.833 171.5 300.167 171.5 300.5C170.833 302.819 170.666 305.153 171 307.5C172.352 305.406 172.852 303.073 172.5 300.5C173.148 298.414 174.648 297.414 177 297.5C178.812 297.493 180.312 298.16 181.5 299.5C182.6 303.442 182.767 307.442 182 311.5C179.955 313.043 178.455 312.71 177.5 310.5Z" fill="#E0E1C7"/>
<path fill-rule="evenodd" clip-rule="evenodd" d="M543.5 298.5C545.199 298.34 546.866 298.506 548.5 299C551.165 301.468 554.165 301.634 557.5 299.5C557.662 301.527 557.495 303.527 557 305.5C556.329 306.252 555.496 306.586 554.5 306.5C550.642 308.041 550.975 309.041 555.5 309.5C555.5 311.167 555.5 312.833 555.5 314.5C550.769 313.817 546.102 312.817 541.5 311.5C540.534 309.604 540.201 307.604 540.5 305.5C540.166 302.509 541.166 300.176 543.5 298.5Z" fill="#EEEED2"/>
<path opacity="0.286" fill-rule="evenodd" clip-rule="evenodd" d="M435.5 296.5C435.598 298.553 434.931 300.22 433.5 301.5C433.402 299.447 434.069 297.78 435.5 296.5Z" fill="#515453"/>
<path opacity="0.012" fill-rule="evenodd" clip-rule="evenodd" d="M405.5 299.5C405.027 300.906 404.027 301.573 402.5 301.5C402.973 300.094 403.973 299.427 405.5 299.5Z" fill="#2C2E2F"/>
<path opacity="0.218" fill-rule="evenodd" clip-rule="evenodd" d="M329.5 300.5C326.742 301.761 323.742 302.594 320.5 303C313.174 303.5 305.841 303.666 298.5 303.5C298.5 303.167 298.5 302.833 298.5 302.5C308.908 302.796 319.241 302.13 329.5 300.5Z" fill="#363A42"/>
<path fill-rule="evenodd" clip-rule="evenodd" d="M171.5 300.5C171.833 300.5 172.167 300.5 172.5 300.5C172.852 303.073 172.352 305.406 171 307.5C170.666 305.153 170.833 302.819 171.5 300.5Z" fill="#777B76"/>
<path fill-rule="evenodd" clip-rule="evenodd" d="M545.5 303.5C548.041 304.623 548.041 305.956 545.5 307.5C544.374 306.192 544.374 304.858 545.5 303.5Z" fill="#767A75"/>
<path fill-rule="evenodd" clip-rule="evenodd" d="M282.5 305.5C285.89 309.714 290.223 312.547 295.5 314C306.231 314.763 316.898 314.263 327.5 312.5C318.519 315.492 309.186 316.658 299.5 316C291.809 315.501 286.143 312.001 282.5 305.5Z" fill="#5D5E60"/>
<path opacity="0.192" fill-rule="evenodd" clip-rule="evenodd" d="M356.5 304.5C349.684 306.139 342.684 307.472 335.5 308.5C342.152 306 349.152 304.666 356.5 304.5Z" fill="#373B40"/>
<path fill-rule="evenodd" clip-rule="evenodd" d="M395.5 306.5C384.828 306.333 374.161 306.5 363.5 307C356.893 308.379 350.227 309.213 343.5 309.5C360.673 305.556 378.006 304.556 395.5 306.5Z" fill="#90918A"/>
<path fill-rule="evenodd" clip-rule="evenodd" d="M177.5 310.5C177.167 310.5 176.833 310.5 176.5 310.5C176.192 308.076 176.526 305.743 177.5 303.5C178.363 305.771 178.363 308.105 177.5 310.5Z" fill="#686C6B"/>
<path fill-rule="evenodd" clip-rule="evenodd" d="M436.5 260.5C437.586 260.62 438.253 261.287 438.5 262.5C432.446 278.275 426.113 293.942 419.5 309.5C416.894 310.652 414.227 310.818 411.5 310C407.525 309.386 403.859 308.219 400.5 306.5C406.448 307.821 412.448 308.821 418.5 309.5C424.685 293.627 431.018 277.794 437.5 262C436.944 261.617 436.611 261.117 436.5 260.5Z" fill="#717470"/>
<path fill-rule="evenodd" clip-rule="evenodd" d="M554.5 306.5C555.347 308.029 556.014 309.696 556.5 311.5C556.48 312.726 556.147 313.726 555.5 314.5C555.5 312.833 555.5 311.167 555.5 309.5C550.975 309.041 550.642 308.041 554.5 306.5Z" fill="#616664"/>
<path fill-rule="evenodd" clip-rule="evenodd" d="M328.5 309.5C325.411 310.785 322.078 311.451 318.5 311.5C318.611 310.883 318.944 310.383 319.5 310C322.482 309.502 325.482 309.335 328.5 309.5Z" fill="#808078"/>
<path fill-rule="evenodd" clip-rule="evenodd" d="M540.5 305.5C540.201 307.604 540.534 309.604 541.5 311.5C546.102 312.817 550.769 313.817 555.5 314.5C554.903 315.139 554.07 315.472 553 315.5C548.511 314.692 544.011 314.025 539.5 313.5C539.194 310.615 539.527 307.948 540.5 305.5Z" fill="#919388"/>
<path opacity="0.271" fill-rule="evenodd" clip-rule="evenodd" d="M391.5 316.5C380.817 316.428 370.15 316.762 359.5 317.5C365.769 316.02 372.269 315.353 379 315.5C383.347 315.501 387.514 315.834 391.5 316.5Z" fill="#474A50"/>
<path fill-rule="evenodd" clip-rule="evenodd" d="M391.5 316.5C395.846 316.334 400.179 316.501 404.5 317C408.691 317.579 412.357 319.079 415.5 321.5C407.43 319.554 399.43 317.887 391.5 316.5Z" fill="#7A7C77"/>
<path opacity="0.212" fill-rule="evenodd" clip-rule="evenodd" d="M352.5 318.5C349.091 319.903 345.425 320.57 341.5 320.5C344.909 319.097 348.575 318.43 352.5 318.5Z" fill="#3F4149"/>
<path fill-rule="evenodd" clip-rule="evenodd" d="M541.5 321.5C540.61 323.782 540.444 326.115 541 328.5C542.128 326.655 542.628 324.655 542.5 322.5C544.099 322.232 545.432 322.566 546.5 323.5C545.943 325.949 545.943 328.282 546.5 330.5C546.787 327.329 548.454 325.329 551.5 324.5C552.429 325.689 552.762 327.022 552.5 328.5C552.59 331.152 551.924 333.485 550.5 335.5C549.423 336.018 548.256 336.352 547 336.5C543.888 335.517 540.722 334.85 537.5 334.5C536.504 334.586 535.671 334.252 535 333.5C534.163 328.692 534.996 324.192 537.5 320C539.463 319.156 540.796 319.656 541.5 321.5Z" fill="#DFE0C7"/>
<path fill-rule="evenodd" clip-rule="evenodd" d="M186.5 323.5C187.833 325.833 187.833 328.167 186.5 330.5C183.63 331.433 181.296 333.1 179.5 335.5C178 337.179 176.167 338.512 174 339.5C171.422 336.854 170.922 333.854 172.5 330.5C172.248 328.927 171.582 327.594 170.5 326.5C170.5 325.167 170.5 323.833 170.5 322.5C175.833 322.833 181.167 323.167 186.5 323.5Z" fill="#DADBC3"/>
<path fill-rule="evenodd" clip-rule="evenodd" d="M186.5 323.5C181.167 323.167 175.833 322.833 170.5 322.5C170.5 323.833 170.5 325.167 170.5 326.5C168.787 325.365 168.12 323.698 168.5 321.5C173.844 321.334 179.177 321.501 184.5 322C185.416 322.278 186.082 322.778 186.5 323.5Z" fill="#82857C"/>
<path fill-rule="evenodd" clip-rule="evenodd" d="M552.5 328.5C552.762 327.022 552.429 325.689 551.5 324.5C548.454 325.329 546.787 327.329 546.5 330.5C545.943 328.282 545.943 325.949 546.5 323.5C547.117 323.611 547.617 323.944 548 324.5C549.444 322.845 551.278 322.178 553.5 322.5C553.795 324.735 553.461 326.735 552.5 328.5Z" fill="#80827B"/>
<path opacity="0.498" fill-rule="evenodd" clip-rule="evenodd" d="M290.5 322.5C300.546 325.814 310.88 326.481 321.5 324.5C313.73 326.379 305.73 326.879 297.5 326C294.719 325.478 292.385 324.311 290.5 322.5Z" fill="#737671"/>
<path fill-rule="evenodd" clip-rule="evenodd" d="M541.5 321.5C542.167 321.5 542.5 321.833 542.5 322.5C542.628 324.655 542.128 326.655 541 328.5C540.444 326.115 540.61 323.782 541.5 321.5Z" fill="#414546"/>
<path opacity="0.118" fill-rule="evenodd" clip-rule="evenodd" d="M186.5 330.5C184.704 332.9 182.37 334.567 179.5 335.5C181.296 333.1 183.63 331.433 186.5 330.5Z" fill="#4C5354"/>
<path fill-rule="evenodd" clip-rule="evenodd" d="M537.5 334.5C540.722 334.85 543.888 335.517 547 336.5C548.256 336.352 549.423 336.018 550.5 335.5C549.848 336.725 548.681 337.392 547 337.5C543.515 337.17 540.348 336.17 537.5 334.5Z" fill="#717471"/>
<path fill-rule="evenodd" clip-rule="evenodd" d="M191.5 344.5C189.871 345.625 188.371 346.959 187 348.5C186.308 349.437 186.475 350.103 187.5 350.5C190.167 350.5 192.833 350.5 195.5 350.5C195.5 351.5 195.5 352.5 195.5 353.5C190.203 354.275 184.87 354.608 179.5 354.5C179.338 352.473 179.505 350.473 180 348.5C183.038 345.631 185.871 342.631 188.5 339.5C189.542 338.209 190.708 338.209 192 339.5C192.78 341.387 192.613 343.054 191.5 344.5Z" fill="#F0F0D4"/>
<path fill-rule="evenodd" clip-rule="evenodd" d="M535.5 341.5C534.627 346.294 536.627 348.627 541.5 348.5C542.496 348.414 543.329 348.748 544 349.5C544.78 351.387 544.613 353.054 543.5 354.5C540.278 354.15 537.112 353.483 534 352.5C532.93 352.528 532.097 352.861 531.5 353.5C531.672 354.492 531.338 355.158 530.5 355.5C528.516 355.516 527.516 354.516 527.5 352.5C528.156 350.547 528.489 348.547 528.5 346.5C528.642 343.17 530.142 340.837 533 339.5C534.376 339.684 535.209 340.351 535.5 341.5Z" fill="#DDDEC5"/>
<path opacity="0.039" fill-rule="evenodd" clip-rule="evenodd" d="M535.5 341.5C536.29 342.609 536.79 343.942 537 345.5C538.652 346.399 540.152 347.399 541.5 348.5C536.627 348.627 534.627 346.294 535.5 341.5Z" fill="#37393A"/>
<path fill-rule="evenodd" clip-rule="evenodd" d="M188.5 339.5C185.871 342.631 183.038 345.631 180 348.5C179.505 350.473 179.338 352.473 179.5 354.5C177.762 352.881 177.262 350.881 178 348.5C181.098 344.893 184.598 341.893 188.5 339.5Z" fill="#95988C"/>
<path opacity="0.094" fill-rule="evenodd" clip-rule="evenodd" d="M191.5 344.5C191.489 346.017 190.823 347.184 189.5 348C191.708 348.191 193.708 348.691 195.5 349.5C192.615 349.194 189.948 349.527 187.5 350.5C186.475 350.103 186.308 349.437 187 348.5C188.371 346.959 189.871 345.625 191.5 344.5Z" fill="#474C4D"/>
<path fill-rule="evenodd" clip-rule="evenodd" d="M528.5 346.5C528.489 348.547 528.156 350.547 527.5 352.5C527.516 354.516 528.516 355.516 530.5 355.5C528.012 356.918 526.346 356.084 525.5 353C526.412 350.683 527.412 348.516 528.5 346.5Z" fill="#8A8D82"/>
<path opacity="0.914" fill-rule="evenodd" clip-rule="evenodd" d="M187.5 350.5C189.948 349.527 192.615 349.194 195.5 349.5C197.405 351.049 197.739 352.882 196.5 355C190.651 355.818 184.985 355.652 179.5 354.5C184.87 354.608 190.203 354.275 195.5 353.5C195.5 352.5 195.5 351.5 195.5 350.5C192.833 350.5 190.167 350.5 187.5 350.5Z" fill="#868A80"/>
<path opacity="0.161" fill-rule="evenodd" clip-rule="evenodd" d="M531.5 353.5C532.097 352.861 532.93 352.528 534 352.5C537.112 353.483 540.278 354.15 543.5 354.5C542.903 355.139 542.07 355.472 541 355.5C537.888 354.517 534.722 353.85 531.5 353.5Z" fill="#696D69"/>
<path opacity="0.776" fill-rule="evenodd" clip-rule="evenodd" d="M200.5 361.5C197.068 362.761 193.735 364.261 190.5 366C188.393 367.264 187.393 369.097 187.5 371.5C186.031 368.898 186.698 366.731 189.5 365C192.456 363.041 195.623 361.541 199 360.5C199.765 360.57 200.265 360.903 200.5 361.5Z" fill="#80847B"/>
<path fill-rule="evenodd" clip-rule="evenodd" d="M200.5 361.5C204.075 364.65 206.075 368.65 206.5 373.5C205.127 373.657 203.793 373.49 202.5 373C201.458 371.082 200.292 369.249 199 367.5C199.153 370.174 199.653 372.84 200.5 375.5C199.022 375.762 197.689 375.429 196.5 374.5C195.974 372.77 194.974 371.436 193.5 370.5C193.167 370.833 192.833 371.167 192.5 371.5C194.623 373.745 195.623 376.412 195.5 379.5C194.5 379.5 193.5 379.5 192.5 379.5C189.836 377.516 188.169 374.849 187.5 371.5C187.393 369.097 188.393 367.264 190.5 366C193.735 364.261 197.068 362.761 200.5 361.5Z" fill="#E1E2C8"/>
<path fill-rule="evenodd" clip-rule="evenodd" d="M537.5 368.5C536.055 370.063 534.389 371.396 532.5 372.5C531.629 375.003 530.963 377.67 530.5 380.5C530.565 380.938 530.399 381.272 530 381.5C526.684 378.252 523.35 374.919 520 371.5C518.458 369.435 518.291 367.435 519.5 365.5C520.531 364.645 521.697 363.978 523 363.5C527.752 364.764 532.586 365.431 537.5 365.5C537.5 366.5 537.5 367.5 537.5 368.5Z" fill="#DCDDC5"/>
<path opacity="0.937" fill-rule="evenodd" clip-rule="evenodd" d="M537.5 368.5C537.5 367.5 537.5 366.5 537.5 365.5C532.586 365.431 527.752 364.764 523 363.5C521.697 363.978 520.531 364.645 519.5 365.5C519.414 364.504 519.748 363.671 520.5 363C526.577 362.512 532.577 363.012 538.5 364.5C538.768 366.099 538.434 367.432 537.5 368.5Z" fill="#7F817B"/>
<path fill-rule="evenodd" clip-rule="evenodd" d="M206.5 373.5C204.626 374.285 202.626 374.952 200.5 375.5C199.653 372.84 199.153 370.174 199 367.5C200.292 369.249 201.458 371.082 202.5 373C203.793 373.49 205.127 373.657 206.5 373.5Z" fill="#5C6463"/>
<path fill-rule="evenodd" clip-rule="evenodd" d="M200.5 375.5C199.739 376.391 198.739 377.058 197.5 377.5C196.614 378.325 196.281 379.325 196.5 380.5C194.901 380.768 193.568 380.434 192.5 379.5C193.5 379.5 194.5 379.5 195.5 379.5C195.623 376.412 194.623 373.745 192.5 371.5C192.833 371.167 193.167 370.833 193.5 370.5C194.974 371.436 195.974 372.77 196.5 374.5C197.689 375.429 199.022 375.762 200.5 375.5Z" fill="#535757"/>
<path opacity="0.455" fill-rule="evenodd" clip-rule="evenodd" d="M532.5 372.5C532.663 374.857 532.497 377.19 532 379.5C531.617 380.056 531.117 380.389 530.5 380.5C530.963 377.67 531.629 375.003 532.5 372.5Z" fill="#6B6D68"/>
<path fill-rule="evenodd" clip-rule="evenodd" d="M514.5 387.5C516.992 391.612 518.992 391.279 520.5 386.5C521.635 384.787 523.302 384.12 525.5 384.5C524.999 390.35 522.332 395.017 517.5 398.5C513.213 396.103 509.38 393.103 506 389.5C504.92 386.763 505.754 385.096 508.5 384.5C510.801 384.984 512.801 385.984 514.5 387.5Z" fill="#C5C5B1"/>
<path opacity="0.847" fill-rule="evenodd" clip-rule="evenodd" d="M520.5 386.5C518.992 391.279 516.992 391.612 514.5 387.5C516.751 388.865 518.751 388.531 520.5 386.5Z" fill="#545D5B"/>
<path opacity="0.753" fill-rule="evenodd" clip-rule="evenodd" d="M216.5 390.5C217.884 389.199 219.384 389.199 221 390.5C221.333 393.5 221.667 396.5 222 399.5C224.09 396.983 225.923 396.983 227.5 399.5C226.85 399.196 226.183 398.863 225.5 398.5C223.999 399.752 222.332 400.752 220.5 401.5C220.342 398.283 220.175 394.95 220 391.5C218.989 390.663 217.822 390.33 216.5 390.5Z" fill="#636A65"/>
<path fill-rule="evenodd" clip-rule="evenodd" d="M216.5 390.5C217.822 390.33 218.989 390.663 220 391.5C220.175 394.95 220.342 398.283 220.5 401.5C222.332 400.752 223.999 399.752 225.5 398.5C226.183 398.863 226.85 399.196 227.5 399.5C228.569 402.196 227.569 404.196 224.5 405.5C222.596 405.738 221.262 406.738 220.5 408.5C219.294 411.139 217.294 411.972 214.5 411C213.577 408.959 213.244 406.792 213.5 404.5C214.788 402.965 214.788 401.299 213.5 399.5C212.167 400.5 210.833 401.5 209.5 402.5C208.482 401.807 207.482 401.141 206.5 400.5C206.709 399.078 207.209 397.745 208 396.5C210.731 394.255 213.564 392.255 216.5 390.5Z" fill="#DDDEC6"/>
<path opacity="0.02" fill-rule="evenodd" clip-rule="evenodd" d="M213.5 404.5C213.649 403.448 213.483 402.448 213 401.5C210.136 404.402 207.969 404.068 206.5 400.5C207.482 401.141 208.482 401.807 209.5 402.5C210.833 401.5 212.167 400.5 213.5 399.5C214.788 401.299 214.788 402.965 213.5 404.5Z" fill="#484F4E"/>
<path opacity="0.016" fill-rule="evenodd" clip-rule="evenodd" d="M224.5 405.5C223.738 407.262 222.404 408.262 220.5 408.5C221.262 406.738 222.596 405.738 224.5 405.5Z" fill="#4A4B4C"/>
<path opacity="0.71" fill-rule="evenodd" clip-rule="evenodd" d="M493.5 405.5C495.436 407.825 496.77 410.492 497.5 413.5C497.167 413.5 496.833 413.5 496.5 413.5C496.5 412.5 496.5 411.5 496.5 410.5C494.053 410.615 492.053 411.615 490.5 413.5C490.5 412.833 490.167 412.5 489.5 412.5C491.705 410.637 493.039 408.303 493.5 405.5Z" fill="#585D5C"/>
<path fill-rule="evenodd" clip-rule="evenodd" d="M240.5 412.5C242.178 415.552 242.845 418.885 242.5 422.5C242.106 424.71 240.773 426.043 238.5 426.5C228.826 426.506 225.492 421.839 228.5 412.5C229.425 410.116 231.258 409.116 234 409.5C236.802 409.32 238.969 410.32 240.5 412.5ZM233.5 416.5C234.833 416.5 236.167 416.5 237.5 416.5C237.616 419.91 235.95 421.244 232.5 420.5C232.433 419.041 232.766 417.708 233.5 416.5Z" fill="#E4E4CA"/>
<path fill-rule="evenodd" clip-rule="evenodd" d="M493.5 405.5C493.039 408.303 491.705 410.637 489.5 412.5C490.167 412.5 490.5 412.833 490.5 413.5C492.053 411.615 494.053 410.615 496.5 410.5C496.5 411.5 496.5 412.5 496.5 413.5C494.272 414.322 493.605 415.655 494.5 417.5C496.5 416.167 498.5 414.833 500.5 413.5C501.183 413.863 501.85 414.196 502.5 414.5C501.182 418.332 498.848 421.499 495.5 424C493.934 424.765 492.601 424.598 491.5 423.5C488.035 420.375 485.368 416.708 483.5 412.5C485.427 407.576 488.761 405.243 493.5 405.5Z" fill="#D9DAC2"/>
<path opacity="0.01" fill-rule="evenodd" clip-rule="evenodd" d="M502.5 414.5C501.85 414.196 501.183 413.863 500.5 413.5C498.5 414.833 496.5 416.167 494.5 417.5C493.605 415.655 494.272 414.322 496.5 413.5C496.833 414.833 497.167 414.833 497.5 413.5C499.726 411.82 501.393 412.153 502.5 414.5Z" fill="#3F4245"/>
<path fill-rule="evenodd" clip-rule="evenodd" d="M228.5 412.5C225.492 421.839 228.826 426.506 238.5 426.5C231.445 428.286 227.112 425.453 225.5 418C225.613 415.601 226.613 413.768 228.5 412.5Z" fill="#A0A395"/>
<path fill-rule="evenodd" clip-rule="evenodd" d="M240.5 412.5C244.355 415.354 245.022 418.687 242.5 422.5C242.845 418.885 242.178 415.552 240.5 412.5Z" fill="#84867C"/>
<path opacity="0.537" fill-rule="evenodd" clip-rule="evenodd" d="M483.5 412.5C485.368 416.708 488.035 420.375 491.5 423.5C486.222 421.291 483.555 417.624 483.5 412.5Z" fill="#4A4C49"/>
<path opacity="0.051" fill-rule="evenodd" clip-rule="evenodd" d="M233.5 414.5C238.068 414.083 239.568 416.083 238 420.5C234.736 423.626 232.569 423.126 231.5 419C231.519 417.167 232.185 415.667 233.5 414.5ZM233.5 416.5C232.766 417.708 232.433 419.041 232.5 420.5C235.95 421.244 237.616 419.91 237.5 416.5C236.167 416.5 234.833 416.5 233.5 416.5Z" fill="#363B3F"/>
<path fill-rule="evenodd" clip-rule="evenodd" d="M479.5 422.5C479.201 424.604 479.534 426.604 480.5 428.5C482.858 429.154 484.525 430.487 485.5 432.5C483.304 434.545 480.97 434.878 478.5 433.5C477.614 432.224 476.614 432.224 475.5 433.5C475.624 434.107 475.957 434.44 476.5 434.5C477.788 436.035 477.788 437.701 476.5 439.5C475.232 440.428 473.899 440.595 472.5 440C468.945 436.388 466.279 432.222 464.5 427.5C467.311 422.426 471.645 419.926 477.5 420C478.381 420.708 479.047 421.542 479.5 422.5Z" fill="#D2D3BC"/>
<path fill-rule="evenodd" clip-rule="evenodd" d="M255.5 426.5C254.427 427.251 254.26 428.251 255 429.5C256.961 427.42 259.128 427.086 261.5 428.5C260.943 430.949 260.943 433.282 261.5 435.5C262.976 433.429 264.976 432.429 267.5 432.5C269.344 433.204 269.844 434.537 269 436.5C266.131 439.704 262.965 442.537 259.5 445C254.773 446.279 252.273 444.445 252 439.5C248.503 441.162 246.003 440.162 244.5 436.5C246.163 431.838 247.83 427.172 249.5 422.5C252.691 421.648 254.691 422.981 255.5 426.5Z" fill="#D0D1BB"/>
<path fill-rule="evenodd" clip-rule="evenodd" d="M479.5 422.5C480.41 424.019 481.243 425.685 482 427.5C483.918 428.542 485.751 429.708 487.5 431C486.956 431.717 486.289 432.217 485.5 432.5C484.525 430.487 482.858 429.154 480.5 428.5C479.534 426.604 479.201 424.604 479.5 422.5Z" fill="#5B5F5C"/>
<path opacity="0.047" fill-rule="evenodd" clip-rule="evenodd" d="M255.5 426.5C256.879 426.671 258.546 426.838 260.5 427C261.056 427.383 261.389 427.883 261.5 428.5C259.128 427.086 256.961 427.42 255 429.5C254.26 428.251 254.427 427.251 255.5 426.5Z" fill="#464A4F"/>
<path fill-rule="evenodd" clip-rule="evenodd" d="M472.5 425.5C474.048 425.821 474.715 426.821 474.5 428.5C471.752 428.598 471.086 427.598 472.5 425.5Z" fill="#42484C"/>
<path opacity="0.18" fill-rule="evenodd" clip-rule="evenodd" d="M261.5 428.5C262.29 429.609 262.79 430.942 263 432.5C264.616 431.199 266.116 431.199 267.5 432.5C264.976 432.429 262.976 433.429 261.5 435.5C260.943 433.282 260.943 430.949 261.5 428.5Z" fill="#6C6E6B"/>
<path opacity="0.141" fill-rule="evenodd" clip-rule="evenodd" d="M478.5 433.5C477.508 433.328 476.842 433.662 476.5 434.5C475.957 434.44 475.624 434.107 475.5 433.5C476.614 432.224 477.614 432.224 478.5 433.5Z" fill="#404649"/>
<path fill-rule="evenodd" clip-rule="evenodd" d="M451.5 434.5C454.754 434.207 457.754 434.874 460.5 436.5C463.303 439.204 464.137 442.537 463 446.5C461.961 447.71 460.794 448.71 459.5 449.5C455.286 451.038 451.286 450.704 447.5 448.5C446.883 448.389 446.383 448.056 446 447.5C443.959 441.291 445.793 436.958 451.5 434.5ZM455.5 440.5C455.762 441.978 455.429 443.311 454.5 444.5C452.889 443.68 452.222 442.346 452.5 440.5C453.5 440.5 454.5 440.5 455.5 440.5Z" fill="#E0E0C7"/>
<path opacity="0.384" fill-rule="evenodd" clip-rule="evenodd" d="M451.5 434.5C453.628 433.371 455.961 433.204 458.5 434C459.756 434.417 460.423 435.25 460.5 436.5C457.754 434.874 454.754 434.207 451.5 434.5Z" fill="#616561"/>
<path opacity="0.051" fill-rule="evenodd" clip-rule="evenodd" d="M455.5 440.5C456.88 440.962 457.547 441.962 457.5 443.5C456.365 447.039 454.532 447.372 452 444.5C451.506 442.866 451.34 441.199 451.5 439.5C453.099 439.232 454.432 439.566 455.5 440.5ZM455.5 440.5C454.5 440.5 453.5 440.5 452.5 440.5C452.222 442.346 452.889 443.68 454.5 444.5C455.429 443.311 455.762 441.978 455.5 440.5Z" fill="#262933"/>
<path fill-rule="evenodd" clip-rule="evenodd" d="M441.5 454.5C439.187 451.77 437.52 448.604 436.5 445C434.455 444.51 432.455 444.677 430.5 445.5C431.918 443.292 433.918 442.458 436.5 443C438.841 446.517 440.507 450.351 441.5 454.5Z" fill="#81847D"/>
<path fill-rule="evenodd" clip-rule="evenodd" d="M441.5 454.5C441.838 458.151 440.172 459.817 436.5 459.5C436.617 457.516 435.95 455.85 434.5 454.5C433.534 456.396 433.201 458.396 433.5 460.5C431.278 460.822 429.444 460.155 428 458.5C427.51 459.793 427.343 461.127 427.5 462.5C425.708 462.634 424.042 462.301 422.5 461.5C420.733 459.208 419.733 456.542 419.5 453.5C419.5 452.167 419.5 450.833 419.5 449.5C422.229 448.47 424.896 448.47 427.5 449.5C428.117 449.611 428.617 449.944 429 450.5C429.198 448.618 429.698 446.952 430.5 445.5C432.455 444.677 434.455 444.51 436.5 445C437.52 448.604 439.187 451.77 441.5 454.5Z" fill="#ECECD1"/>
<path fill-rule="evenodd" clip-rule="evenodd" d="M272.5 452.5C269.668 454.111 267.668 453.278 266.5 450C267.443 447.019 269.443 446.019 272.5 447C273.807 448.943 273.807 450.777 272.5 452.5Z" fill="#81857D"/>
<path fill-rule="evenodd" clip-rule="evenodd" d="M272.5 452.5C269.09 452.616 267.756 450.95 268.5 447.5C271.91 447.384 273.244 449.05 272.5 452.5Z" fill="#EEEFD3"/>
<path fill-rule="evenodd" clip-rule="evenodd" d="M308.5 452.5C308.5 453.5 308.5 454.5 308.5 455.5C305.861 455.429 303.694 454.429 302 452.5C301.5 452.833 301 453.167 300.5 453.5C302.878 455.552 305.211 457.552 307.5 459.5C307.634 461.292 307.301 462.958 306.5 464.5C303.167 464.5 299.833 464.5 296.5 464.5C295.878 463.373 295.045 462.373 294 461.5C293.633 457.026 295.133 456.86 298.5 461C299.635 461.749 300.635 461.583 301.5 460.5C299.816 458.649 297.983 456.982 296 455.5C295.51 453.455 295.677 451.455 296.5 449.5C299.304 448.362 302.304 448.195 305.5 449C307.063 449.759 308.063 450.926 308.5 452.5Z" fill="#E9E9CE"/>
<path opacity="0.278" fill-rule="evenodd" clip-rule="evenodd" d="M427.5 449.5C424.896 448.47 422.229 448.47 419.5 449.5C419.5 450.833 419.5 452.167 419.5 453.5C417.798 449.413 419.298 447.413 424 447.5C425.681 447.608 426.848 448.275 427.5 449.5Z" fill="#83887F"/>
<path fill-rule="evenodd" clip-rule="evenodd" d="M447.5 448.5C451.286 450.704 455.286 451.038 459.5 449.5C455.189 453.695 451.189 453.362 447.5 448.5Z" fill="#888A81"/>
<path fill-rule="evenodd" clip-rule="evenodd" d="M308.5 452.5C309.867 455.012 309.534 457.345 307.5 459.5C305.211 457.552 302.878 455.552 300.5 453.5C301 453.167 301.5 452.833 302 452.5C303.694 454.429 305.861 455.429 308.5 455.5C308.5 454.5 308.5 453.5 308.5 452.5Z" fill="#92958A"/>
<path opacity="0.914" fill-rule="evenodd" clip-rule="evenodd" d="M317.5 454.5C319.628 453.371 321.961 453.204 324.5 454C326.32 454.2 327.653 455.034 328.5 456.5C324.833 455.833 321.167 455.167 317.5 454.5Z" fill="#7D8279"/>
<path fill-rule="evenodd" clip-rule="evenodd" d="M317.5 454.5C321.167 455.167 324.833 455.833 328.5 456.5C329.117 456.611 329.617 456.944 330 457.5C330.801 460.367 330.634 463.034 329.5 465.5C326.428 465.183 323.428 465.516 320.5 466.5C319.625 468.773 317.958 469.773 315.5 469.5C316.08 465.19 316.414 460.857 316.5 456.5C316.328 455.508 316.662 454.842 317.5 454.5Z" fill="#F0F1D4"/>
<path fill-rule="evenodd" clip-rule="evenodd" d="M399.5 458.5C395.22 457.46 390.887 457.294 386.5 458C385.556 460.719 385.223 463.552 385.5 466.5C382.703 456.145 386.703 452.645 397.5 456C398.381 456.708 399.047 457.542 399.5 458.5Z" fill="#898C82"/>
<path opacity="0.635" fill-rule="evenodd" clip-rule="evenodd" d="M338.5 458.5C342.646 457.353 346.98 457.186 351.5 458C352.056 458.383 352.389 458.883 352.5 459.5C347.87 458.771 343.203 458.437 338.5 458.5Z" fill="#7A8179"/>
<path fill-rule="evenodd" clip-rule="evenodd" d="M399.5 458.5C400.222 458.918 400.722 459.584 401 460.5C402.964 466.461 401.131 470.461 395.5 472.5C392.5 472.5 389.5 472.5 386.5 472.5C385.539 470.735 385.205 468.735 385.5 466.5C385.223 463.552 385.556 460.719 386.5 458C390.887 457.294 395.22 457.46 399.5 458.5ZM391.5 465.5C391.5 464.833 391.5 464.167 391.5 463.5C393.023 462.254 394.023 462.754 394.5 465C393.824 466.683 392.824 466.85 391.5 465.5Z" fill="#E3E3CA"/>
<path opacity="0.886" fill-rule="evenodd" clip-rule="evenodd" d="M296.5 449.5C295.677 451.455 295.51 453.455 296 455.5C297.983 456.982 299.816 458.649 301.5 460.5C300.635 461.583 299.635 461.749 298.5 461C295.133 456.86 293.633 457.026 294 461.5C295.045 462.373 295.878 463.373 296.5 464.5C293.714 464.044 292.381 462.377 292.5 459.5C293.768 456.686 294.601 453.686 295 450.5C295.383 449.944 295.883 449.611 296.5 449.5Z" fill="#878A81"/>
<path opacity="0.995" fill-rule="evenodd" clip-rule="evenodd" d="M338.5 458.5C343.203 458.437 347.87 458.771 352.5 459.5C352.5 460.5 352.5 461.5 352.5 462.5C349.753 462.187 347.086 462.52 344.5 463.5C346.396 464.466 348.396 464.799 350.5 464.5C350.5 465.833 350.5 467.167 350.5 468.5C341.167 469.167 341.167 469.833 350.5 470.5C351.167 470.5 351.5 470.833 351.5 471.5C347.285 473.436 342.619 474.103 337.5 473.5C337.221 468.405 337.555 463.405 338.5 458.5Z" fill="#E9EACF"/>
<path opacity="0.231" fill-rule="evenodd" clip-rule="evenodd" d="M441.5 454.5C442.788 456.035 442.788 457.701 441.5 459.5C439.684 460.735 438.017 460.735 436.5 459.5C440.172 459.817 441.838 458.151 441.5 454.5Z" fill="#4B4F4D"/>
<path fill-rule="evenodd" clip-rule="evenodd" d="M366.5 459.5C367.02 462.193 368.52 464.193 371 465.5C371.464 464.906 371.631 464.239 371.5 463.5C371.5 461.833 371.5 460.167 371.5 458.5C373.167 458.5 374.833 458.5 376.5 458.5C376.5 459.833 376.5 461.167 376.5 462.5C376.5 466.5 376.5 470.5 376.5 474.5C374.833 474.5 373.167 474.5 371.5 474.5C370.188 472.521 368.521 470.855 366.5 469.5C365.548 471.045 365.215 472.712 365.5 474.5C364.122 475.234 362.622 475.901 361 476.5C360.501 470.509 360.334 464.509 360.5 458.5C362.621 458.325 364.621 458.659 366.5 459.5Z" fill="#EFEFD3"/>
<path fill-rule="evenodd" clip-rule="evenodd" d="M321.5 458.5C322.5 458.5 323.5 458.5 324.5 458.5C324.5 459.833 324.5 461.167 324.5 462.5C323.5 462.5 322.5 462.5 321.5 462.5C321.5 461.167 321.5 459.833 321.5 458.5Z" fill="#82877E"/>
<path opacity="0.776" fill-rule="evenodd" clip-rule="evenodd" d="M366.5 459.5C368.167 460.833 369.833 462.167 371.5 463.5C371.631 464.239 371.464 464.906 371 465.5C368.52 464.193 367.02 462.193 366.5 459.5Z" fill="#797974"/>
<path fill-rule="evenodd" clip-rule="evenodd" d="M436.5 459.5C435.733 460.172 435.066 461.005 434.5 462C431.295 462.649 428.295 463.815 425.5 465.5C423.712 464.717 422.712 463.384 422.5 461.5C424.042 462.301 425.708 462.634 427.5 462.5C427.343 461.127 427.51 459.793 428 458.5C429.444 460.155 431.278 460.822 433.5 460.5C433.201 458.396 433.534 456.396 434.5 454.5C435.95 455.85 436.617 457.516 436.5 459.5Z" fill="#A3A597"/>
<path fill-rule="evenodd" clip-rule="evenodd" d="M352.5 462.5C351.952 464.626 351.285 466.626 350.5 468.5C350.5 467.167 350.5 465.833 350.5 464.5C348.396 464.799 346.396 464.466 344.5 463.5C347.086 462.52 349.753 462.187 352.5 462.5Z" fill="#606461"/>
<path fill-rule="evenodd" clip-rule="evenodd" d="M296.5 464.5C299.833 464.5 303.167 464.5 306.5 464.5C305.688 465.993 304.355 466.66 302.5 466.5C300.201 466.401 298.201 465.734 296.5 464.5Z" fill="#94978B"/>
<path fill-rule="evenodd" clip-rule="evenodd" d="M391.5 465.5C392.824 466.85 393.824 466.683 394.5 465C394.023 462.754 393.023 462.254 391.5 463.5C390.596 462.791 390.263 461.791 390.5 460.5C391.978 460.238 393.311 460.571 394.5 461.5C395.374 463.747 395.708 466.08 395.5 468.5C394.167 468.5 392.833 468.5 391.5 468.5C391.5 467.5 391.5 466.5 391.5 465.5Z" fill="#727671"/>
<path opacity="0.965" fill-rule="evenodd" clip-rule="evenodd" d="M316.5 456.5C316.414 460.857 316.08 465.19 315.5 469.5C317.958 469.773 319.625 468.773 320.5 466.5C323.428 465.516 326.428 465.183 329.5 465.5C324.369 466.906 319.369 468.572 314.5 470.5C314.229 465.566 314.896 460.9 316.5 456.5Z" fill="#888B81"/>
<path fill-rule="evenodd" clip-rule="evenodd" d="M350.5 468.5C350.5 469.167 350.5 469.833 350.5 470.5C341.167 469.833 341.167 469.167 350.5 468.5Z" fill="#5E6361"/>
<path opacity="0.01" fill-rule="evenodd" clip-rule="evenodd" d="M371.5 474.5C369.956 474.297 368.622 473.63 367.5 472.5C366.818 473.243 366.151 473.909 365.5 474.5C365.215 472.712 365.548 471.045 366.5 469.5C368.521 470.855 370.188 472.521 371.5 474.5Z" fill="#393D3C"/>
<path fill-rule="evenodd" clip-rule="evenodd" d="M386.5 472.5C389.5 472.5 392.5 472.5 395.5 472.5C392.977 473.254 390.311 473.92 387.5 474.5C386.702 474.043 386.369 473.376 386.5 472.5Z" fill="#71736D"/>
<path fill-rule="evenodd" clip-rule="evenodd" d="M351.5 471.5C352.791 472.542 352.791 473.708 351.5 475C346.556 475.873 341.89 475.373 337.5 473.5C342.619 474.103 347.285 473.436 351.5 471.5Z" fill="#94978B"/>
<path opacity="0.937" fill-rule="evenodd" clip-rule="evenodd" d="M376.5 462.5C377.485 466.634 377.818 470.968 377.5 475.5C375.265 475.795 373.265 475.461 371.5 474.5C373.167 474.5 374.833 474.5 376.5 474.5C376.5 470.5 376.5 466.5 376.5 462.5Z" fill="#5C615F"/>
</svg>
